<svg id="Layer_1" data-name="Layer 1" xmlns="http://www.w3.org/2000/svg" viewBox="0 0 93.3 75.9"><defs><style>.cls-1{opacity:0.35;}</style></defs><title>Untitled-3</title><g class="cls-1"><path d="M36.2,41.3c.3-.6.6-1.2.8-1.8a35.5,35.5,0,0,1,2.7-4.4c1.1-1.7,2.4-3.3,3.5-5A2.5,2.5,0,0,1,45.4,29a2.3,2.3,0,0,0,1.2-.2,2.7,2.7,0,0,0,2.8-1.8,1.2,1.2,0,0,0,.1-.9c-.2-.6-.1-1.2-.3-1.8a.2.2,0,0,0-.1-.2,3.4,3.4,0,0,1-.4-1.4,6.9,6.9,0,0,0-.2-1,.2.2,0,0,0-.1-.2c-.4-.3-.1-.7-.2-1a2.4,2.4,0,0,0-.6-1.6,4.3,4.3,0,0,0,.2,1.7c.2,1.7.4,3.4.4,5.2s-.3,2-1.9,2.3l-.6.2H43.5a3.8,3.8,0,0,1-1.9-.5,2,2,0,0,1-1.2-1.9,30.8,30.8,0,0,1,.3-4.7,41.6,41.6,0,0,1,1.8-6.3,6.3,6.3,0,0,1,1.3-2.4A6.7,6.7,0,0,1,48,10.3h2l1.5.3a6.2,6.2,0,0,0,5-1.7,4.1,4.1,0,0,1,1.7-1h.6a9.3,9.3,0,0,1,2.9,4.3,4.9,4.9,0,0,1-.8,4.6l-1.2,1.4-.2.2h0l-.2.2h0l-.2.2-3.8,2.9a6.6,6.6,0,0,0-2.5,5.8,33.5,33.5,0,0,0,.8,5.6,94.6,94.6,0,0,0,3.6,12,7.6,7.6,0,0,0,1.4,2.8,7.2,7.2,0,0,1,.8,1.3v.2h0a1,1,0,0,1-.2.6l-.3.2h-9a1.4,1.4,0,0,1-.6-.6,13.1,13.1,0,0,1-1.4-6.1,4.1,4.1,0,0,1,2.1-3.3l1.1-.7A2,2,0,0,0,52,37a39.6,39.6,0,0,0-2.2-4.3c-.2-.4-.4-.3-.6-.1l-.2.3A2.3,2.3,0,0,1,47,34.1a6.6,6.6,0,0,0-1.7.4c-.4.2-.8,0-1.1-.2s-1.6-.6-1.6.9a28.5,28.5,0,0,0,.1,3.3,2.3,2.3,0,0,0,1.7,2.1l1,.4a.9.9,0,0,1,.4,1.5l-.8.8-2.4,2A6,6,0,0,0,40,50.3H34.1a4.4,4.4,0,0,1-2.8-3.4,3.5,3.5,0,0,1,2.5-4.1c.1.7-.6,1.3-.5,2s-.1.1,0,.2a2.3,2.3,0,0,0,.3,2l.2.2h0a.2.2,0,0,0,.2.2h0a.2.2,0,0,0,.2.2h.2a.6.6,0,0,0,.6.3.7.7,0,0,0,.6.2h.9c.1-.1.1-.2,0-.3a5.3,5.3,0,0,1-.4-1.8,13,13,0,0,1,.2-4.3A.3.3,0,0,0,36.2,41.3Z"/><path d="M50.1,67.1c-2.6.1-4.9-2.5-4.7-5.6a5.3,5.3,0,0,1,5.7-5.1,5.2,5.2,0,0,1,4.6,5.7A5.2,5.2,0,0,1,50.1,67.1Zm4.1-5a5,5,0,0,0-1.5-4,3.3,3.3,0,0,0-5,.7,5.7,5.7,0,0,0,.9,6.6,3.2,3.2,0,0,0,4.9-.6A4.8,4.8,0,0,0,54.2,62.1Z"/><path d="M76.4,57v-.4h4.5a4.2,4.2,0,0,1,1.9.8,2.5,2.5,0,0,1,.1,3.9l-.6.5c-.3.1-.3.3-.1.6l2,2.9a2.8,2.8,0,0,0,1.6,1.3s0,.2.1.3a6.7,6.7,0,0,1-2,.1h0l-.4-.2h0l-.2-.2h0l-.4-.2c-.6-1.2-1.5-2.2-2-3.4a.5.5,0,0,0-.5-.3h-.9c-.4,0-.5.2-.5.5s0,1.5,0,2.2.1,1,.8,1,.4.1.4.4-.3.2-.4.2H76.6c-.1,0-.3,0-.3-.2s.1-.2.2-.3a1.7,1.7,0,0,0,.9-1.7c.1-2.1.1-4.1.1-6.2a1.6,1.6,0,0,0-.5-1.1C76.8,57.1,76.6,57.1,76.4,57Zm2.4,2.6c0,.6,0,1.2,0,1.7s0,.3.2.4a2.4,2.4,0,0,0,3.1-1.2c.7-1.8-.4-3.2-2.5-3.1s-.8,0-.8.8S78.9,59.1,78.9,59.6Z"/><path d="M74,58.9c-.3-.5-.4-1.1-1-1.3a8.6,8.6,0,0,0-3.1-.1c-.2,0-.2.2-.2.4s0,1.8-.1,2.7.1.6.5.5h2.1a1.1,1.1,0,0,0,1.1-.7.3.3,0,0,1,.3-.1c.2,0,.2.2.2.3s0,1.5-.1,2.3h-.4v-.4c0-.1,0-.2-.1-.2a1.2,1.2,0,0,0-1-.5h-2c-.3,0-.5.1-.5.4a21.4,21.4,0,0,0,.1,3.4,5.9,5.9,0,0,0,3.3,0,1.5,1.5,0,0,0,1.2-.8l.3-.5a.5.5,0,0,1,.6-.1c.2.1.1.2.1.4s-.2,1.4-.6,1.9-1.2.1-1.9.1h-.8a3.9,3.9,0,0,0-2,0H67.5c-.3,0-.6,0-.5-.4s.3,0,.4-.2a2,2,0,0,0,.8-1.6,59,59,0,0,0,0-6.9c0-.1,0-.2-.1-.2s-.3-.1-.4-.2-.2-.1-.4-.2,0-.4.3-.4h5.9c1,0,1,0,1,.9s.1.8.1,1.2Z"/><path d="M11.5,63.2a7.8,7.8,0,0,0-.8,2c-.2.8-.2.8.6,1s.4.3.3.6H8.7c-.2,0-.4,0-.4-.3s.2-.2.3-.3a2.2,2.2,0,0,0,1-1.1c1.1-2.4,2.1-4.9,2.9-7.3.1-.2.3-.5.3-.7s.3-.5.7-.5.9,0,1.1.8c.8,2.6,1.7,5.2,2.7,7.7.2.5.4,1.1,1.1,1.2a.3.3,0,0,1,.2.3c0,.2-.2.2-.4.2H15.4c-.2,0-.4,0-.4-.3s.2-.2.4-.3.6-.4.4-.9l-.7-2.2V63H11.7Zm.4-1h2.9l-1.3-3.9a25.4,25.4,0,0,0-1.4,3.1Z"/><path d="M90.7,57.5h-1a.6.6,0,0,0-.6.2,1.3,1.3,0,0,0-.4,2.4,4.5,4.5,0,0,0,1.7.9,7.7,7.7,0,0,1,2.1.9,2.6,2.6,0,0,1,.4,3.6,3.5,3.5,0,0,1-2,1.4h-3a.7.7,0,0,0-.6-.2c-.3-.1-.3-.2-.3-.5a7,7,0,0,0-.2-2V64c.3,0,.5-.1.6.3s.8,1.7,2.1,1.8a2.4,2.4,0,0,0,2.6-1.3.9.9,0,0,0-.1-1.1,4,4,0,0,0-2-1.1,6.3,6.3,0,0,1-2.1-1c-1.4-1.2-1.3-4.2,1.1-4.8l.7-.2h1.8c.4.1,1,.1,1.3.4s.2.8.2,1.3v.4c0,.2,0,.4-.2.4s-.5.1-.5-.3a1.5,1.5,0,0,0-.9-1.1C91.2,57.4,90.9,57.5,90.7,57.5Z"/><path d="M60.5,66.9c-.5-1.5-1-3-1.6-4.5a30,30,0,0,0-1.5-3.9c-.3-.6-.6-1.3-1.3-1.5s.2-.3.3-.3h2.9c.3,0,.6,0,.5.4l-.6.2c-.5.2-.4.5-.3.9l2.1,6c0,.1.1.4.4.3l1.6-4,.8-2.1a1.2,1.2,0,0,0,.1-.9c0-.2-.1-.3-.3-.2s-.5-.1-.8-.5h3.5c.1.1.1.2,0,.2a3.2,3.2,0,0,0-1.6,2l-2.8,6.8c-.2.4-.2.8-.4,1.1Z"/><path d="M53.9,2.4A1.6,1.6,0,0,1,55.8.6,2.3,2.3,0,0,0,57.3.3a1.9,1.9,0,0,1,2.2.2,1.9,1.9,0,0,1,.6,2.1,6.8,6.8,0,0,1-2,2.9,1,1,0,0,1-1.2.1,20.3,20.3,0,0,1-2-1A2.5,2.5,0,0,1,53.9,2.4Z"/><path d="M.6,56.6H2.4a14.4,14.4,0,0,0,4,0,7.5,7.5,0,0,0,2.2-.1h.2a13.4,13.4,0,0,0,.1,1.9c0,.1,0,.3-.1.3a.3.3,0,0,1-.3-.1,1.7,1.7,0,0,0-1.7-1.1,1.8,1.8,0,0,0-1.4,0,49.6,49.6,0,0,0-.1,5.5,12.6,12.6,0,0,0,.1,2.6c0,.1,0,.2.1.2s.5.2.7.2.3.1.3.3-.1.2-.3.2H2.6c-.1,0-.3,0-.3-.2s.1-.3.3-.3,1.1-.4,1.2-1.4.1-4.7.1-7v-.3a2.6,2.6,0,0,0-1.7,0,1.1,1.1,0,0,0-1.4.9,2,2,0,0,1-.3.5L0,58.9a20.1,20.1,0,0,0,.2-2.2Z"/><path d="M37.2,57.1v-.4h3.1c.2,0,.4-.1.5.2s-.1.3-.3.3-.8.6-.8,1.1,0,3.6,0,5.4,0,1,0,1.5,0,.7.7.7h2a1.9,1.9,0,0,0,1.8-1.2c.1-.2.1-.5.5-.3s.1.4.1.6a8.4,8.4,0,0,0-.4,1.4c0,.4-.2.5-.6.5H37.4c-.3,0-.5-.1-.4-.4s.3,0,.4-.2a2.4,2.4,0,0,0,.8-1.9c.1-1.9,0-3.8.1-5.8a1.5,1.5,0,0,0-.8-1.3Z"/><path d="M24.9,56.6h3.3c.1.3-.1.4-.2.4s-.9.7-.9,1.3c0,2.4,0,4.8,0,7.2a.4.4,0,0,0,.2.3,4.7,4.7,0,0,0,2.5,0c1,.1,1.5-.5,1.8-1.3s.1-.4.4-.3.3.3.2.5h0c-.3.6-.1,1.4-.6,1.8s-1.2.1-1.9.1H25.2c-.3,0-.7.1-.7-.4l.4-.2a3.3,3.3,0,0,0,.8-2.3q0-2.7,0-5.4a1.4,1.4,0,0,0-.7-1.3c-.1-.2-.2-.1-.4-.2v-.4Z"/><path d="M22.5,66.9a18.6,18.6,0,0,0-2.5,0c-.2,0-.4,0-.4-.2s.1-.3.3-.3,1-.7,1-1.4,0-4.1,0-6.2a1.5,1.5,0,0,0-.7-1.4c-.1-.2-.4-.1-.6-.2s-.1-.4.2-.4h3.5c.2,0,.2.2.2.4s-.4,0-.6.2-.5.2-.5.5a4,4,0,0,0-.1.8q0,3.2,0,6.4c0,.1,0,.3,0,.4s.2,1,.9.9.4.2.3.5Z"/><path d="M37.5,73.6c0,.7-.3,1.5.2,2.2a3.6,3.6,0,0,1-1.3,0,6.1,6.1,0,0,0,.7-3.4c0-.1,0-.2-.2-.2l-.2-.2h1v.2a.2.2,0,0,0,.1.2,8,8,0,0,0,.9,2h0c.1.1.1,0,.2-.1s.8-1.4.9-2.2.2-.2.3-.4h1a1.1,1.1,0,0,0-.4,1c.1.9-.1,1.9.4,2.8H39.9c.7-.8.3-1.6.3-2.4s-.5.8-.7,1.1a10.5,10.5,0,0,0-.5,1.2c-.9-.5-.8-1.4-1.2-2.1s-.1-.5-.2-.4S37.4,73.5,37.5,73.6Z"/><path d="M29.4,75.9a1.1,1.1,0,0,1-1-.6,2.3,2.3,0,0,1-.3-2.4,1.8,1.8,0,0,1,1.5-1.2,2,2,0,0,1,2.3,1.3,2.1,2.1,0,0,1-.6,2.4l-.6.4Zm2-1.8a2.3,2.3,0,0,0-.6-1.5,1.2,1.2,0,0,0-1.9.2,2.1,2.1,0,0,0,.3,2.4,1.2,1.2,0,0,0,2-.3A4.3,4.3,0,0,0,31.4,74Z"/><path d="M65.3,72.2c-.4.2-.3.6-.3,1s0,1.4,0,2.1.1.5-.2.6-.4-.1-.5-.3l-2-2.4V73c-.1,0-.1.1-.2.1a13.9,13.9,0,0,0,0,2,.6.6,0,0,0,.4.6H61.3v-.2c.1,0,.2-.1.2-.2a8.1,8.1,0,0,0,.2-3.1c0-.1-.2-.2-.3-.2s.5-.2.8-.3a30,30,0,0,0,2.4,2.7,3,3,0,0,0-.3-2.6h1.2Z"/><path d="M54,75.8H52.6c.9-.5.8-1.4,1.2-2.1a14.7,14.7,0,0,1,.6-1.4c.3-.5.6-.4.8.1l.8,2.1a2.5,2.5,0,0,0,.9,1.4H55.2c.6-.4.2-.9.1-1.3s-1.1-.2-1.3,0A.9.9,0,0,0,54,75.8Zm.3-1.9a1,1,0,0,0,1,0c-.1-.4-.1-.9-.5-1.1A3.2,3.2,0,0,0,54.2,74Z"/><path d="M21.2,72.4a1.9,1.9,0,0,0-.5,2.5,1.3,1.3,0,0,0,1.7.5c.3-.1.5-.4.8-.5s-.2.8-.6,1H21.2a1.3,1.3,0,0,1-1.3-1.1,2.4,2.4,0,0,1,.6-2.5A2.8,2.8,0,0,1,23,72c.4.2.2.6.2,1s-.5-.5-.7-.6A1.1,1.1,0,0,0,21.2,72.4Z"/><path d="M46.2,72.2,46,72h2c1.1.6,1.2,1.4.3,2.1a.9.9,0,0,1-.7.2c-.6-.1-.7.2-.6.7v.5c0,.2.2.2.4.2s-.9.1-1.3.2.2-2.3.3-3.4S46.3,72.2,46.2,72.2Zm.8.8c0,.8,0,.9.4.9a.9.9,0,1,0,.1-1.7C46.8,72.2,47,72.7,46.9,73Z"/><path d="M71.1,74a10.9,10.9,0,0,0-1.3-1.9c.4-.4.8-.2,1.3-.2s-.3.3-.2.5l.5.9h.3c.2-.4.7-.6.6-1.2s.7-.2,1.1-.2a5.6,5.6,0,0,0-1.4,2,1.7,1.7,0,0,0,.3,1.8H70.7a1.5,1.5,0,0,0,.6-1.6C71.3,74.1,71.2,74,71.1,74Z"/><path d="M74,58.9h.6C74.4,59.2,74.2,59.1,74,58.9Z"/><path d="M73.4,63h.4C73.6,63.2,73.5,63.2,73.4,63Z"/><path d="M33.9,47.4a.2.2,0,0,1-.2-.2Z"/><path d="M33.7,47.2l-.2-.2Z"/><path d="M48.4,21.5a.2.2,0,0,1,.1.2A.2.2,0,0,1,48.4,21.5Z"/><path d="M33.2,45c-.1-.1,0-.2,0-.2A.1.1,0,0,1,33.2,45Z"/><path d="M65.3,72.2V72C65.6,72.1,65.5,72.1,65.3,72.2Z"/><path d="M73.1,62.4c.1,0,.2,0,.1.2Z"/><path d="M34.1,50.3h0Z"/><path d="M86.6,64v.2C86.4,64,86.5,64,86.6,64Z"/><path d="M36.4,48.2h-.3C36.2,48.1,36.3,48.1,36.4,48.2Z"/><path d="M36.4,47.8c.1.1.2.2,0,.3Z"/><path d="M61.4,75.4c0,.1,0,.2-.2.2Z"/><path d="M34.3,47.8h0Z"/></g></svg>