<svg id="Layer_1" data-name="Layer 1" xmlns="http://www.w3.org/2000/svg" viewBox="0 0 109.4 29.8"><defs><style>.cls-1{opacity:0.35;}</style></defs><title>Untitled-3</title><g class="cls-1"><path d="M10.1,8.2a2.1,2.1,0,0,0,1.3,1.3l7.7,3.3h.1l-.2.2-2.5.9-2.5.9L9.4,16.4,7,17.2H6.9L3.5,16.2l-1.9-.7A2.3,2.3,0,0,1,0,13.3a14,14,0,0,1,0-1.5H.2l1.4-1.3a3.5,3.5,0,0,1,2.7-.9h.1c.2.1.5.2.5.5s.1.1.2.1H6.5a5.8,5.8,0,0,0,2.2-.6,3.2,3.2,0,0,0,1-.7Z"/><path d="M22.5,22.2v.2q0,2.4,0,4.7a2.7,2.7,0,0,1-2.7,2.7H1.3l2.4-.8L9,26.8l.2.6a2.3,2.3,0,0,0,3.8.2,2.2,2.2,0,0,0,.2-2.3h.2l4.1-1.4,1.9-.7Z"/><path d="M7.8,20.7l2.1.5a1.3,1.3,0,0,0,1.4-.5,1.2,1.2,0,0,0,.1-1.3v-.2h.2l1.5-.5,4.7-1.7,2.1-.7,2.5-.9a1.6,1.6,0,0,1,.1.6c0,1,0,1.9,0,2.9h-.1l-4.8,1.7-2.5.8L10.3,23l-2.5.9L2.9,25.6l-2.1.7-.9.3V23.4l.7-.2,4.8-1.7,2.1-.7Z"/><path d="M0,26.5l.9-.3,2.1-.7,4.8-1.7,2.5-.9,4.8-1.7,2.5-.8,4.8-1.7h.1v3.4l-2.9,1-1.9.7-4.1,1.4h-.3a2.3,2.3,0,0,0-3.9-.1A2.2,2.2,0,0,0,9,26.8L3.7,28.7l-2.4.8H1.2A1.7,1.7,0,0,1,0,28.2C0,27.6,0,27.1,0,26.5Z"/><path d="M11.7,0h8.7a2,2,0,0,1,2,2c0,.9,0,1.9,0,2.8h-.4L19,6,16.2,7H16l-1.9-.6L12.5,6a2.1,2.1,0,0,0-1.2,0c0-.5-.1-1.1-.2-1.6s0-.3-.2-.4a.5.5,0,0,1-.3-.5,3.3,3.3,0,0,1,.8-2.3l.8-1h-.5Z"/><path d="M28.9,5.4a6.7,6.7,0,0,1,.4-2.6A4,4,0,0,1,32.5.2L34.6,0h9.3a1,1,0,0,1,1.1,1.1q0,.5,0,1.1a.9.9,0,0,1-1,1H34.3A1.8,1.8,0,0,0,32.6,5c0,.1,0,.3,0,.4Z"/><path d="M82.3,5.1a2.9,2.9,0,0,0-2.4-2H75.1a.9.9,0,0,0-1,1c0,.4,0,.7,0,1.1H70.7c0-1.4,0-2.8,0-4.1a.9.9,0,0,1,.9-.8h8a7.8,7.8,0,0,1,3.5.8l1,.7a5.1,5.1,0,0,1,1.7,3.5Z"/><path d="M45.4,13.7a4.3,4.3,0,0,1-2.4,4,6.2,6.2,0,0,1-2,.5H30.5a1,1,0,0,1-1.1-1c0-.4,0-.8,0-1.2a.9.9,0,0,1,1-.9h9.7a1.8,1.8,0,0,0,1.5-1.3Z"/><path d="M45.4,13.7H41.6a3.8,3.8,0,0,0,0-1.3,1.8,1.8,0,0,0-1.4-1.5H34.9a10.1,10.1,0,0,1-2.8-.3,4,4,0,0,1-2.5-2V8.1H42.7a3.4,3.4,0,0,1,1.1.7A3.7,3.7,0,0,1,45,10.3a5.6,5.6,0,0,1,.4,2.1A8.6,8.6,0,0,1,45.4,13.7Z"/><path d="M22.3,15.3l-2.5.9-2.1.7L13,18.6l-1.5.5h-.2a1.7,1.7,0,0,0-.8-.5L6.9,17.4H7l2.4-.8L14,14.8l2.5-.9,2.5-.9.2-.2,1.7.7A2.8,2.8,0,0,1,22.3,15.3Z"/><path d="M47.8,8.8q0-1.7,0-3.4c0-.4,0-.9,0-1.3h3.7q0,1,0,1.9c0,.5,0,.9,0,1.4a.2.2,0,0,0,.1.2h.3l.8-1,2.2-2.8h4.5L58.1,5.5l-2,2.6a1.7,1.7,0,0,0-.3.7Z"/><path d="M102.7,15.4c0-.2,0-.4,0-.7s0-.2-.2-.2H91.6a.9.9,0,0,1-.9-.9c0-.3,0-.6,0-.8H109c0,.5,0,1.1,0,1.6s-.1.1-.2.1h-2.3c-.1,0-.2,0-.2.2s0,.4,0,.7Z"/><path d="M47.8,8.8h8a1.6,1.6,0,0,0,.4,1.1l2,2.7.2.3H53.8l-1.7-2.3-.2-.2h-.2c-.1,0-.1.1-.2.2a1.9,1.9,0,0,0,0,.3q0,1,0,2.1H47.8Z"/><path d="M109,12.9H90.6a6,6,0,0,1,.1-1.5h4.7a.5.5,0,0,0,.5.2h6.5c.3,0,.3,0,.3-.3h3.7c0,.3,0,.3.3.3h2.2c.1,0,.2,0,.2.1S109,12.4,109,12.9Z"/><path d="M97.9,3.7l1.5-1.5L101.5.1h4.7c.1,0,.2,0,.2.1s0,2.6,0,3.9h-3.7V3.6l-.2.2H97.9Z"/><path d="M53.8,12.9h4.5l1.1,1.5,2.3,3.1.2.3a.4.4,0,0,1-.3.5H58.7a1.8,1.8,0,0,1-1.5-.7l-3.4-4.6Z"/><path d="M4.3,9.5a3.5,3.5,0,0,0-2.7.9L.2,11.7H0v-.8c.1-.1,0-.1,0-.2a2.9,2.9,0,0,1,.1-.5c.1-.1,0-.1,0-.2h0l.3-.7H.5a2.2,2.2,0,0,1,.8-.7l.8-.3,1.4-.2H5.8l1.1.2h.1A2.6,2.6,0,0,0,8.7,6.8a1.3,1.3,0,0,0,.2-.8c-.1-.4-.1-.7-.2-1.1s0-.3-.1-.4V3.1a7.8,7.8,0,0,1,.6-1.7,2.9,2.9,0,0,1,1-1.1l.3-.2h1.1V.2a5.9,5.9,0,0,0-1.1,1.4A3.5,3.5,0,0,0,10,3a4.3,4.3,0,0,0,.1,1.5,7.4,7.4,0,0,1,0,1.4,5.3,5.3,0,0,1-.4,1.6A3.4,3.4,0,0,1,8.2,9.1a5.7,5.7,0,0,1-2.4.5H4.9A1.3,1.3,0,0,0,4.3,9.5Z"/><path d="M97.9,3.7h4.6l-2.2,2.3L99.1,7.2,97.9,8.4c0-.1-.1-.1-.2-.1H93.3l1.4-1.4,3.1-3.1Z"/><path d="M47.8,12.9h3.7c0,.2,0,.3,0,.5s0,2.7,0,4a.9.9,0,0,1-1,1H48.7a.9.9,0,0,1-.9-.9c0-1.5,0-3,0-4.5Z"/><path d="M74.1,12.9a.5.5,0,0,1,0,.2q0,2.1,0,4.2a.9.9,0,0,1-1,1H71.7a.9.9,0,0,1-1-1q0-2.1,0-4.2v-.2Z"/><path d="M85.9,13.2q0,1.5,0,3c0,.4,0,.8,0,1.2a.9.9,0,0,1-1,.9H83.4a.9.9,0,0,1-.9-.8c0-1.4,0-2.8,0-4.2Z"/><path d="M41.2,28.5l1.4-3h1.9l-.3.8h3.2c.1-.1-.1-.2-.1-.3h2l1.1,2.5h-2l-.3-.6H43.4l-.2.5Z"/><path d="M67.8,13.2q0,1.3,0,2.5c0,.5,0,1,0,1.5a.9.9,0,0,1-.9.9H65.2a.9.9,0,0,1-.9-.9c0-1.3,0-2.7,0-4h3.5Z"/><path d="M59.3,3.8H54.8l1.8-2.4.6-.8A2,2,0,0,1,58.8,0h2.6c.2,0,.4,0,.5.2a.5.5,0,0,1-.1.5L60,3Z"/><path d="M7.8,20.7H7.6l-2.1.7L.7,23.2l-.7.2c0-.8,0-1.7,0-2.5a1.8,1.8,0,0,1,2.2-1.5l5.5,1.3Z"/><path d="M42.7,8H29.4a5.8,5.8,0,0,1-.5-2.3.9.9,0,0,1,0-.4h3.7a5.5,5.5,0,0,0,.1.7,1.7,1.7,0,0,0,.8,1.1,3.2,3.2,0,0,0,1.7.4h5.5A7.1,7.1,0,0,1,42.7,8Z"/><path d="M64.4,8.9V8.7c0-1.4,0-2.8,0-4.1s.1-.2.2-.2h3.1c.1,0,.2,0,.2.1s0,2.9,0,4.4Z"/><path d="M64.4,8.9h3.4c0,.8,0,1.7,0,2.5s0,1.2,0,1.8H64.4q0-2,0-4.1Z"/><path d="M51.5,4.1H47.8c0-1.1,0-2.2,0-3.2a.9.9,0,0,1,.9-.8h1.9a.9.9,0,0,1,.9.8C51.5,1.9,51.5,3,51.5,4.1Z"/><path d="M85.9,13.2H82.4V8.9h3.5q0,1.6,0,3.1C85.9,12.5,85.9,12.8,85.9,13.2Z"/><path d="M70.7,5h3.4a3.5,3.5,0,0,1,0,.7c0,1.1,0,2.2,0,3.3H70.7Z"/><path d="M92.7,22.6h0c0-.3,0-.3-.4-.3H89.6c-.1,0-.2,0-.2-.2s0-.8,0-1.2,0-.2.2-.2h8.1c.2,0,.2,0,.2.2s0,.8,0,1.1,0,.2-.2.2H94.8c-.3,0-.3,0-.3.2H92.7Z"/><path d="M16,7.1h.1L19,6l3.1-1.1h.4c0,1,0,1.9,0,2.9a1.1,1.1,0,0,1-1.5.9l-2.4-.8Z"/><path d="M93.3,8.3h4.4c.1,0,.2-.1.2.1l-.3.3-.8.8-1.2,1.3c-.1.1-.3.3-.2.5H90.8a1.9,1.9,0,0,1,.5-.9Z"/><path d="M102.7,4.1h3.7q0,1.8,0,3.7h-3.7Q102.7,5.9,102.7,4.1Z"/><path d="M85.9,8.9H82.4c0-.9,0-1.8,0-2.6s0-.8-.1-1.2h3.5a5.2,5.2,0,0,1,0,.7Q85.9,7.4,85.9,8.9Z"/><path d="M70.7,9.1h3.4a5.3,5.3,0,0,1,0,.8c0,1,0,1.9,0,2.9v.2H70.7Z"/><path d="M102.7,7.7h3.7v3.5h-3.7Z"/><path d="M80.6,23.7v.5c0,.2,0,.2.2.2h5c.4,0,.4,0,.4.4s0,.8,0,1.1H80.4c0-.1-.1-.1-.2-.1H78.6a6.4,6.4,0,0,1,0-1.3,3.9,3.9,0,0,1,.1-.9Z"/><path d="M68.8,27.7a2.5,2.5,0,0,0,1.6.5h2.2c.1,0,.2,0,.2-.1h1.9c0,.5,0,1,0,1.5s0,.2-.2.2H70.1l-1.5-.2a3.2,3.2,0,0,1-1.9-1.6h2.2Z"/><path d="M66.6,22.7a3.2,3.2,0,0,1,2.1-1.9l1.4-.2h4.4c.1,0,.2,0,.2.2s0,.8,0,1.2,0,.2-.2.2H69.7a2.2,2.2,0,0,0-1,.5H66.6Z"/><path d="M37.4,28.1c0,.5,0,1,0,1.6s-.1.1-.2.1H32a3.4,3.4,0,0,1-2.4-1.6v-.3h2.2a2.6,2.6,0,0,0,1.5.4h2.2c.1,0,.2,0,.2-.1Z"/><path d="M29.4,22.6A3,3,0,0,1,31,21a4.3,4.3,0,0,1,1.8-.4h4.4c.1,0,.2,0,.2.2s0,.8,0,1.2,0,.2-.2.2H32.5l-.9.4c0-.1-.1-.1-.2-.1h-2Z"/><path d="M106.8,26.1h-3a3.6,3.6,0,0,1-1.5-.3,2,2,0,0,1-1.2-1.6h2a1.4,1.4,0,0,0,1,.4h2.5a3.1,3.1,0,0,1,1.7.5,1.9,1.9,0,0,1,.8,1.1H107C106.9,26,106.8,25.9,106.8,26.1Z"/><path d="M54.2,28.4c0-.5,0-1,0-1.4s0-.5,0-.8H56c0,.6,0,1.2,0,1.8s0,.2.1.2h2.5a2,2,0,0,0,1.9-1.3,4.4,4.4,0,0,0,.3-1.3h1.9a4.7,4.7,0,0,1-.7,2.5l-.2.3H54.2Z"/><path d="M60.2,20.9a3.1,3.1,0,0,1,1.8,1.5H59.7a2.9,2.9,0,0,0-1.4-.3H56.4c-.4,0-.4,0-.4.4H54.1c0-.6,0-1.1,0-1.7h6.1Z"/><path d="M102.7,15.4h3.7c0,.9,0,1.8,0,2.7s0,.1-.1.1h-3.5c-.1,0-.1,0-.1-.1S102.7,16.3,102.7,15.4Z"/><path d="M66.1,3H64.5c-.1,0-.2,0-.2-.1s0-1.4,0-2a.9.9,0,0,1,.9-.8H67a.9.9,0,0,1,.9.9c0,.6,0,1.3,0,1.9s-.1.2-.2.2Z"/><path d="M81.5,27.9a2.9,2.9,0,0,0,1.4.3h2.9c.1,0,.2,0,.2.2s0,.9,0,1.3,0,.1-.1.1H82.2a3.5,3.5,0,0,1-2.7-1.2l-.3-.5c0-.1.1-.1.2-.1h2.1Z"/><path d="M79.3,22.2a3,3,0,0,1,1.6-1.3,4.5,4.5,0,0,1,1.6-.3h3.3c.1,0,.2,0,.2.2s0,.8,0,1.2,0,.2-.2.2H81.9c0-.1-.1-.1-.2-.1H79.3Z"/><path d="M109.1,28.5l-.4.5a2.1,2.1,0,0,1-1.3.6h-5.9c-.2,0-.2,0-.2-.2s0-.7,0-1.1h7.7Z"/><path d="M54.2,28.4h7.6a3.4,3.4,0,0,1-2.2,1.2H54.3c-.2,0-.2,0-.2-.2S54.1,28.8,54.2,28.4Z"/><path d="M101.5,21.8a2,2,0,0,1,1.5-1h6c.2,0,.2,0,.2.2s0,.6,0,.9Z"/><path d="M101.5,21.8h7.7c0,.5,0,.5-.4.5h-4.3a1.7,1.7,0,0,0-.9.2.9.9,0,0,0-.4.8,1.4,1.4,0,0,0,.2.8h-2A3.6,3.6,0,0,1,101.5,21.8Z"/><path d="M43.2,24.2l.8-1.8h3.6l.9,2H46.6l-.8-1.8-.7,1.6H43.2Z"/><path d="M109.1,28.5h-7.8c0-.1,0-.2.2-.2h5.2a1.1,1.1,0,0,0,.5-1.8l-.5-.3c0-.1.1-.1.2-.1h2.2a4,4,0,0,1,.1,1.7A2.1,2.1,0,0,1,109.1,28.5Z"/><path d="M72.8,26.3c0-.3,0-.3-.3-.3H71.1c-.1,0-.2,0-.2-.1s0-.9,0-1.3,0-.1.1-.1h3.5c.1,0,.1,0,.1.1s0,1.1,0,1.7Z"/><path d="M35.6,26H33.8c-.1,0-.2,0-.2-.1s0-.9,0-1.3,0-.1.1-.1h3.5c.1,0,.1,0,.1.1s0,1,0,1.5Z"/><path d="M4.3,9.5a1.3,1.3,0,0,1,.7,0h.9a5.7,5.7,0,0,0,2.4-.5A3.4,3.4,0,0,0,9.8,7.5a5.3,5.3,0,0,0,.4-1.6,7.4,7.4,0,0,0,0-1.4h.4a3.2,3.2,0,0,1,0,.3c0,.5,0,1,0,1.4a1.9,1.9,0,0,0-.5,1.8l-.5.7a3.2,3.2,0,0,1-1,.7,5.8,5.8,0,0,1-2.2.6H5c-.1,0-.2,0-.2-.1s-.2-.4-.5-.5Z"/><path d="M47.6,22.4H44l.7-1.7h2.1Z"/><path d="M29,26.6a7.3,7.3,0,0,1-.1-1.7A3.6,3.6,0,0,1,29,24h1.9a6.6,6.6,0,0,0,0,2v.5H29Z"/><path d="M92.7,28.5c0-.4,0-.8,0-1.2s0-.8,0-1.2h1.8c0,.3,0,.6,0,.9s0,1.6,0,2.5,0,.1,0,.2,0-.7,0-1.1,0-.2-.2-.2Z"/><path d="M94.6,26.1H92.7a8.3,8.3,0,0,1,0-.9c0-.5,0-1,0-1.4h1.8C94.6,24.6,94.6,25.4,94.6,26.1Z"/><path d="M56,26.2H54.2a9.3,9.3,0,0,1,0-1c0-.5,0-1,0-1.5H56Z"/><path d="M68.1,24.2a6.2,6.2,0,0,0,.1,2.4H66.2a3.6,3.6,0,0,1-.1-.8,8.8,8.8,0,0,1,0-1.6h1.9Z"/><path d="M59.7,22.5h2.4a4.5,4.5,0,0,1,.6,2H60.8A2.6,2.6,0,0,0,59.7,22.5Z"/><path d="M81.5,27.9H79.3c-.1,0-.2,0-.2.1a3.8,3.8,0,0,1-.5-1.4,3,3,0,0,1-.1-.7h1.7c.1,0,.2,0,.2.1a2.5,2.5,0,0,0,.9,1.8Z"/><path d="M10.6,6.4c0-.5,0-1,0-1.4a3.2,3.2,0,0,0,0-.3h-.4A4.3,4.3,0,0,1,10,3a3.5,3.5,0,0,1,.4-1.4A5.9,5.9,0,0,1,11.5.2V0h.6l-.8,1a3.3,3.3,0,0,0-.8,2.3.5.5,0,0,0,.3.5c.2.1.2.3.2.4s.1,1.1.2,1.6Z"/><path d="M35.6,26h1.8v2H35.6C35.5,27.4,35.5,26.7,35.6,26Z"/><path d="M72.8,26.3h1.9v1.8H72.8Z"/><path d="M46.6,24.5h1.9l.8,1.7h-2Z"/><path d="M79.3,22.2h2.4c.1,0,.2,0,.2.1l-.6.3a2.5,2.5,0,0,0-.6.9v.2H78.7A3.7,3.7,0,0,1,79.3,22.2Z"/><path d="M68.1,24.2H66.2a4.2,4.2,0,0,1,.4-1.5h2.2A2.8,2.8,0,0,0,68.1,24.2Z"/><path d="M30.9,24H29a3.7,3.7,0,0,1,.4-1.4h2c.1,0,.2,0,.2.1a2.4,2.4,0,0,0-.7,1.1Z"/><path d="M43.2,24.2H45a10.2,10.2,0,0,1-.6,1.3H42.5Z"/><path d="M29,26.6h1.9a2.5,2.5,0,0,0,.8,1.2H29.4A3.6,3.6,0,0,1,29,26.6Z"/><path d="M41.2,28.5h2l-.5,1.2H40.6Z"/><path d="M48.4,28.7h2l.5,1.1H48.8Z"/><path d="M66.2,26.6h1.9a2.7,2.7,0,0,0,.7,1.1H66.7A3.6,3.6,0,0,1,66.2,26.6Z"/><path d="M92.7,28.5h1.7c.1,0,.2,0,.2.2s0,.7,0,1.1H92.7C92.7,29.3,92.7,28.9,92.7,28.5Z"/><path d="M94.6,23.8H92.7a9.4,9.4,0,0,1,0-1.2h1.8A9.4,9.4,0,0,1,94.6,23.8Z"/><path d="M56,23.8H54.2a9.8,9.8,0,0,1,0-1.2H56Z"/><path d="M60.8,24.5h1.9a7,7,0,0,1,0,1.1H60.8C60.8,25.2,60.8,24.8,60.8,24.5Z"/><path d="M60.2,20.9H54.1c0-.1,0-.2.2-.2H59Z"/><path d="M85.9,26h0Z"/><path d="M11.6,0h0Z"/><path d="M3.5,8.2l-1.4.2V8.3L9.1,1.6h.2a7.8,7.8,0,0,0-.6,1.7H8.5L3.6,8.1Z"/><path d="M9.3,1.4H9.1L2.2,8.3v.2l-.8.3V8.5L5.9,4.2V4L8,2.1,9.4.8l.9-.6h.2l-.3.2A2.9,2.9,0,0,0,9.3,1.4Z"/><path d="M3.5,8.2V8.1L8.5,3.3h.2v1H8.4L4.5,8v.2Z"/><path d="M4.4,8.1V8L8.4,4.2h.2V5H8.3L5.4,7.9v.2Z"/><path d="M5.3,8.1V7.9L8.3,5.1h.2a5.5,5.5,0,0,1-.1.9H8.2L6.3,7.8h-1Z"/><path d="M8.4,5.9A5.5,5.5,0,0,0,8.5,5V4.5c.2.1.1.3.1.4s.1.7.2,1.1a1.3,1.3,0,0,1-.2.8A2.6,2.6,0,0,1,6.9,8.3H6.9L5.8,8.1h.5A2.3,2.3,0,0,0,8.4,5.9Z"/><path d="M6,4v.2L1.4,8.5v.2a2.2,2.2,0,0,0-.8.7H.4A2.1,2.1,0,0,1,1,8.7L5.1,4.9l.8-.7Z"/><path d="M.2,10.2a1.3,1.3,0,0,1,.3-.7Z"/><path d="M8.4,5.9A2.3,2.3,0,0,1,6.3,8h0L8.2,6Z"/></g></svg>