<svg id="Layer_1" data-name="Layer 1" xmlns="http://www.w3.org/2000/svg" viewBox="0 0 132.9 60"><defs><style>.cls-1{opacity:0.35;}</style></defs><title>Untitled-3</title><g class="cls-1"><path d="M7.1.8a6.4,6.4,0,0,0-3.7.6A6.4,6.4,0,0,0,1.4,2.6a.9.9,0,0,0-.3,1,.6.6,0,0,1-.4.8c-.3.1-.6-.1-.7-.5a1.9,1.9,0,0,1,.7-2L2.4.9A7.9,7.9,0,0,1,5.8,0a8.4,8.4,0,0,1,5.8,2.1,11.5,11.5,0,0,1,3.6,6.2,14.3,14.3,0,0,1,.4,4.2,21.6,21.6,0,0,1-1.8,7.7c-.6,1.4-1.3,2.8-2,4.1a37.4,37.4,0,0,1-3.4,5.3L6.7,31.6l-.2.2.6.2a3.4,3.4,0,0,1,2.6,4,9.4,9.4,0,0,1-2.3,4.7.7.7,0,0,0-.1.5,28.2,28.2,0,0,0,1.4,5,.6.6,0,0,1-.6.9c-.3,0-.4-.3-.5-.5l-.4-1.9-.6-3.2-.4.3a3.5,3.5,0,0,1-2.2.8,2.3,2.3,0,0,1-1.9-1.4.5.5,0,0,1,.3-.6.5.5,0,0,1,.7.1l.3.5a1.1,1.1,0,0,0,1.3.6l1.5-.7a.6.6,0,0,0,.2-.5l-.7-6c-.1-.5-.1-1-.1-1.5s-.1-.4-.5-.2L4,33.3a.9.9,0,0,1-.7-.1c-.2-.2-.1-.4-.1-.7s.6-.8,1.2-.7,1.1,0,1.1-1-.1-4.6-.1-7,.1-4.3.2-6.5.1-5.1.1-7.7S5.9,6.5,6,5A12.6,12.6,0,0,1,7.1.8ZM8,.9a9.2,9.2,0,0,1-.2.9c-.2.6-.5,1.1-.7,1.7a28.4,28.4,0,0,0-.8,6.8c-.1,2.1-.1,4.1-.1,6.2s-.3,4.4-.3,6.6,0,4.9.1,7.4a6.1,6.1,0,0,0,.1.6h.2l1-1a37.4,37.4,0,0,0,6.3-10.4,20.5,20.5,0,0,0,1.6-7.4,14,14,0,0,0-.8-5A9.9,9.9,0,0,0,9.2,1.3ZM7,40.3l.2-.2a8,8,0,0,0,1.8-3.4,5.1,5.1,0,0,0,.1-1.8c-.2-1.6-1.4-2.3-2.8-2.4s-.3.1-.3.3,0,.7.1,1.1.3,2.7.5,4.1S6.9,39.5,7,40.3Z"/><path d="M56.9,59.5a35.9,35.9,0,0,0,7.1-.6,11.6,11.6,0,0,0,3.4-1.1,3.7,3.7,0,0,0,1.8-1.9,3.1,3.1,0,0,0,0-2.2,9.9,9.9,0,0,0-3.6-4.5,26,26,0,0,0-6.5-3.5l-4.6-1.6a.8.8,0,0,0-.7.1A20.5,20.5,0,0,1,48,46.7l-2.6.4a3.4,3.4,0,0,1-1.8-.4,1.4,1.4,0,0,1-.5-2.4,8.7,8.7,0,0,1,3-1.9,7.6,7.6,0,0,1,4-.4l2.6.4.7.3a.6.6,0,0,0,.7,0,.5.5,0,0,1,.6.1l.7.4a53,53,0,0,1,6.5,2.8A21.3,21.3,0,0,1,67.5,50a9.4,9.4,0,0,1,2.3,3.7,3.7,3.7,0,0,1-1.9,4.4A13.4,13.4,0,0,1,63,59.6l-5.7.4a39.9,39.9,0,0,1-4.4-.2l-5-.6a23,23,0,0,1-8.6-3A6.4,6.4,0,0,1,37,53.9,3,3,0,0,1,38,49.6l.9-.5a.6.6,0,0,1,.8.4c.1.3-.1.6-.5.7a2.2,2.2,0,0,0-1.8,1.2,2,2,0,0,0-.1,1.6,6,6,0,0,0,2.9,3,23,23,0,0,0,7.7,2.7A48.7,48.7,0,0,0,56.9,59.5ZM53.3,43.8v-.2L52,43.1l-2-.4a5.7,5.7,0,0,0-2.6.1l-1.7.6a5.3,5.3,0,0,0-2,1.4.8.8,0,0,0-.1,1l.9.6a4.5,4.5,0,0,0,2.3.1,14.5,14.5,0,0,0,5-1.8Z"/><path d="M84.3,44.1l1.4.6a8.4,8.4,0,0,0,4.5-.2,22.8,22.8,0,0,0,4.6-1.6l4.2-2.3.5-.5a1.6,1.6,0,0,1,1.6-.7.6.6,0,0,1,.4.4.8.8,0,0,1-.3.6l-.8.4a2.4,2.4,0,0,0-1.1,2.2,1,1,0,0,0,1.3.8,3.8,3.8,0,0,0,1.7-1.2l2-2.4.7-.8c.3.8.5,1.6.9,2.3a3.6,3.6,0,0,0,3,2.3,6.8,6.8,0,0,0,3-.5,29.7,29.7,0,0,0,5.9-3.1l.7-.4a.6.6,0,0,1,.4,1.1l-5.8,2.5a9.6,9.6,0,0,1-3.4.8,4.3,4.3,0,0,1-4.3-2.6l-.6-1.5-.2.3-2.5,2.9a2.5,2.5,0,0,1-1.9.9,1.8,1.8,0,0,1-1.7-1.7c0-.3,0-.7,0-1.1L98,42a36.1,36.1,0,0,1-7.3,2.9,13.5,13.5,0,0,1-4,.5,5.4,5.4,0,0,1-3.2-1.2l-.3-.2,1-.6a7.3,7.3,0,0,1,2.7-.9,17.4,17.4,0,0,1,3.8-.3h1.4c.5-.1.6-.3.4-.7A4.9,4.9,0,0,0,89.9,39a9.3,9.3,0,0,0-3.9-.7,3.8,3.8,0,0,0-2.9,1.4c-.1.1-.2.3,0,.4a.5.5,0,0,1-.1.7.5.5,0,0,1-.7.1.9.9,0,0,1-.3-1.5,4.6,4.6,0,0,1,3.4-1.8,9.7,9.7,0,0,1,5.6,1.4,5,5,0,0,1,2,2.1c.4.7.1,1.3-.7,1.5H91.2a20.3,20.3,0,0,0-4.4.3,6.1,6.1,0,0,0-2.3.8l-.3.2Z"/><path d="M67.1,44.5l1-.7a8.6,8.6,0,0,1,4-1.6,12.7,12.7,0,0,1,6,.8l1.9.8c.3.2.4.4.2.7a.6.6,0,0,1-.9.2l-1.3-1a8.7,8.7,0,0,0-6.6-.9,6.4,6.4,0,0,0-3.9,2.7,3,3,0,0,0-.3,1c-.1.4-.3.6-.7.5s-.5-.2-.4-.7.2-2.5.2-3.7.1-4.2.1-6.3.1-4.7.1-7.1q0-7.9.1-15.8c0-1.9.1-3.7,0-5.6s-.2-3.8-.3-5.7a4.2,4.2,0,0,0-.2-.7A1.8,1.8,0,0,1,66,1l.3-.3c.9-.2.9-.2.9.7s.1,4.3.1,6.4c0,3.8-.2,7.6-.2,11.4S67,27.2,67,31.2s0,7.6,0,11.5c0,.5,0,1,.1,1.5Z"/><path d="M17.3,46.6c.1-.5.2-1,.2-1.4s.3-3.3.3-4.9,0-3.6,0-5.3-.2-4.6-.3-7-.2-3-.2-4.6-.3-5.2-.3-7.8,0-4.4.2-6.5.5-3.9.7-5.8.3-1.6.5-2.3a.7.7,0,0,1,.4-.4l.6.2a.6.6,0,0,1,.1.5c-.4,1.6-.8,3.2-1.1,4.9s-.4,3-.6,4.5a72.4,72.4,0,0,0-.2,8.6c0,2.4.2,4.7.3,7.1s.1,2.7.2,4,.2,4.6.3,6.9,0,1.7,0,2.6,0,4.5,0,6.8a1.5,1.5,0,0,1,0,.4c-.1.3-.2.5-.6.4S17.3,46.8,17.3,46.6Z"/><path d="M119.2,42.3a1.7,1.7,0,0,0-.2,1.2c.2.6.7.9,1.5,1a11.5,11.5,0,0,0,3.7-.4,38,38,0,0,0,6-2.1l1.6-.8c.5-.3,1-.1,1,.4a.5.5,0,0,1-.4.6l-4.3,1.3-5.2,1.3a6.6,6.6,0,0,1-3.3,0c-1.2-.4-1.4-1.2-1.2-2.2a3,3,0,0,1,2.1-2.2,8.5,8.5,0,0,1,2.8-.6,17.7,17.7,0,0,1,5.2.4l1.3.5h.2l-.2.2-1.8.6a29,29,0,0,1-7,.7,1.1,1.1,0,0,0-.8.3.5.5,0,0,1-.6,0Zm9.3-1.4h0l-.6-.2a16.9,16.9,0,0,0-4.4-.3,15.6,15.6,0,0,0-2.5.5l-1,.5h0A25.4,25.4,0,0,0,128.6,40.9Z"/><path d="M21.6,36.1c0,.1,0,.1,0,.2s-.2.7-.6.7-.5-.2-.5-.7.2-3.7.2-5.5-.1-4.5-.1-6.7-.2-6.5-.1-9.8A56.3,56.3,0,0,1,22.2,1.6l.2-.8a.4.4,0,0,1,.7-.3.5.5,0,0,1,.3.8,26.1,26.1,0,0,0-2,7.4,46.6,46.6,0,0,0-.6,7.8c0,2.4.1,4.9.2,7.3s.2,4.5.3,6.8.1,3.2.2,4.7,0,.5.1.8Z"/><path d="M28.8,42.1l-1,1.3a23.1,23.1,0,0,1-2,2.1,2.8,2.8,0,0,1-1.4.6,1.8,1.8,0,0,1-1.9-2,4.4,4.4,0,0,1,1.4-2.8H24a.7.7,0,0,1,.9,0c.2.2,0,.7-.2.9a4.5,4.5,0,0,0-.9.9,3.7,3.7,0,0,0-.5,1.2,1,1,0,0,0,1.3,1.2,4.7,4.7,0,0,0,1.5-1c.8-.8,1.5-1.7,2.2-2.6l.7-.8.4,1.4a5.1,5.1,0,0,0,1.8,2.7,3.7,3.7,0,0,0,3.1.5l2.8-.9a27.6,27.6,0,0,0,4.8-2.6l.6-.3a.5.5,0,0,1,.7.3.5.5,0,0,1-.3.7l-7.3,3a5.7,5.7,0,0,1-3,.3,4.2,4.2,0,0,1-3.2-2.5Z"/><path d="M21.4,46.4c0,.5-.2.7-.5.7a.5.5,0,0,1-.5-.6c0-.6.1-1.1.1-1.7s-.1-1.8-.2-2.7a5,5,0,0,1,.1-1,.6.6,0,0,1,1.1.4,5.7,5.7,0,0,0-.5,2.6,12.1,12.1,0,0,0,.3,1.3Z"/></g></svg>