<svg id="Layer_1" data-name="Layer 1" xmlns="http://www.w3.org/2000/svg" viewBox="0 0 147.5 50"><defs><style>.cls-1{opacity:0.35;}</style></defs><title>Untitled-3</title><g class="cls-1"><path d="M98.7,50.2V.2h49v50Zm18-35v32h6V30.4a13.4,13.4,0,0,1,.5-6.7,5.5,5.5,0,0,1,6.8-3.9l2.4.8,1.7-4.5c.1-.3,0-.5-.2-.6a11.7,11.7,0,0,0-3.8-1.4,6.2,6.2,0,0,0-6.3,2.3l-1.3,1.9-.7,1.1h-.1V15.2Zm-11.3-7c-.1,2.5-.6,4.7-3.2,5.9l1.3,2h.2a7.1,7.1,0,0,0,4.4-6.2c.2-2.5.1-5,.2-7.5h-5.6v6Z"/><path d="M89.7,18.4V2.2h5v44h-6V43h.8l-.3.3A9.9,9.9,0,0,1,81,47.5c-5.5.2-10.7-3.2-13-9.2a22.4,22.4,0,0,1-1.2-9.4,19.7,19.7,0,0,1,2.1-8,12.2,12.2,0,0,1,11.1-6.8A10.5,10.5,0,0,1,89,18.2ZM72.3,30.8c.1,1.4.2,2.7.4,4.1a10.1,10.1,0,0,0,3.4,6.3,7.6,7.6,0,0,0,9.7.2,9.1,9.1,0,0,0,3.1-4.7,21.3,21.3,0,0,0,.6-7.4,15.9,15.9,0,0,0-1.3-5.8,8,8,0,0,0-9.5-4.7A7.9,7.9,0,0,0,73.4,24,20.9,20.9,0,0,0,72.3,30.8Z"/><path d="M62.4,30.6a25.5,25.5,0,0,1-.9,7A13,13,0,0,1,54.2,46a16.1,16.1,0,0,1-12.9.5,13.1,13.1,0,0,1-8.3-9.4A23.6,23.6,0,0,1,33.2,24c1.7-5.4,5.4-8.5,10.9-9.6a15.7,15.7,0,0,1,9.6.9,13.7,13.7,0,0,1,8.2,10.3c.3,1.6.4,3.3.6,5Zm-5.6,0a17,17,0,0,0-.9-5.9,9,9,0,0,0-8.3-6.2A8.8,8.8,0,0,0,39,24.2a15,15,0,0,0-1,4.8,20.2,20.2,0,0,0,.7,7.4A8.9,8.9,0,0,0,47.1,43a8.8,8.8,0,0,0,8.6-5.9A17.7,17.7,0,0,0,56.7,30.7Z"/><path d="M.7,15.2h4v4.4l.4-.5a11.3,11.3,0,0,1,9-4.6,13.8,13.8,0,0,1,6.3,1.1,8.5,8.5,0,0,1,5.1,7,30,30,0,0,1,.2,4.4c0,6.5,0,13.1,0,19.6v.5h-5c0-.6,0-1.2,0-1.7-.2-6.3-.1-12.7,0-19a12.5,12.5,0,0,0-.3-2.8,5.4,5.4,0,0,0-4.4-4.3,8.7,8.7,0,0,0-6.4,1A7,7,0,0,0,6,25.7a28,28,0,0,0-.3,4.1c0,5.6,0,11.2,0,16.7,0,.2,0,.4,0,.6H.7Z"/></g></svg>