<svg id="Layer_1" data-name="Layer 1" xmlns="http://www.w3.org/2000/svg" viewBox="0 0 118.4 45"><defs><style>.cls-1{opacity:0.35;}</style></defs><title>Untitled-3</title><g class="cls-1"><path d="M96.3,44.2H94.2V44c-.1-.8-.3-1.6-.4-2.4s-.2-1.8-.3-2.8v-.3c-.2.1-.2.2-.3.3a18.9,18.9,0,0,1-1.9,2.3,13.6,13.6,0,0,1-2.8,2.2,11.5,11.5,0,0,1-4.2,1.5,13.4,13.4,0,0,1-3.3.1,10.7,10.7,0,0,1-2.8-.7,7.7,7.7,0,0,1-3.5-2.7,7.8,7.8,0,0,1-1.4-3.6,11,11,0,0,1-.1-2.3,9,9,0,0,1,1.4-4.5,8.5,8.5,0,0,1,2.7-2.6,14.2,14.2,0,0,1,3.8-1.6l3.6-.7,3-.3,2.7-.2h3a2.2,2.2,0,0,0,0-.3c0-.9,0-1.8,0-2.7a11.6,11.6,0,0,0-.8-3.7,4.8,4.8,0,0,0-3-2.9l-2.2-.5H85.1l-2,.2a8.2,8.2,0,0,0-3.6,1.7,8.1,8.1,0,0,0-1.9,2.3,10.9,10.9,0,0,0-.9,1.9l-.2.4-2.1-1v-.2a12.4,12.4,0,0,1,1.9-3.3,10,10,0,0,1,2.8-2.4,11.6,11.6,0,0,1,4-1.4,16.4,16.4,0,0,1,3.6-.2,12.1,12.1,0,0,1,3.8.8,7.5,7.5,0,0,1,2.3,1.5,7.8,7.8,0,0,1,2.2,3.9,13.8,13.8,0,0,1,.4,3.5q0,4.9,0,9.8c0,.7,0,1.4,0,2.1s.1,3.3.2,4.9a40.5,40.5,0,0,0,.5,4A1.7,1.7,0,0,1,96.3,44.2ZM93.2,27.5H89.2l-3.1.4-3.4.6a12.6,12.6,0,0,0-3.9,1.5,6.6,6.6,0,0,0-3,3.8,8.7,8.7,0,0,0-.3,3.2,6.3,6.3,0,0,0,.8,2.8,5.3,5.3,0,0,0,1.5,1.6,6.7,6.7,0,0,0,3.4,1.2,11.5,11.5,0,0,0,3.5-.2,10.8,10.8,0,0,0,4.6-2.2A18.4,18.4,0,0,0,93,36.2a1.5,1.5,0,0,0,.3-.8c0-2.4,0-4.9,0-7.3C93.2,27.9,93.2,27.7,93.2,27.5Z"/><path d="M24,28.9H2.4a1.8,1.8,0,0,0-.1.3c0,.6,0,1.1.1,1.7a17.4,17.4,0,0,0,1.2,5.5A11.5,11.5,0,0,0,6.9,41a8.2,8.2,0,0,0,3.4,1.7,11.2,11.2,0,0,0,3.2.2,10,10,0,0,0,3.5-.8,6.9,6.9,0,0,0,1.9-1.2,10.4,10.4,0,0,0,2.6-3.9l.3-.6a9.3,9.3,0,0,1,2.2,1.1l-.2.4a13,13,0,0,1-2.5,3.7,10.6,10.6,0,0,1-3.6,2.5,13.4,13.4,0,0,1-5.4,1,11,11,0,0,1-3.4-.5L6.5,43.3a12.2,12.2,0,0,1-4.3-4.6,16.3,16.3,0,0,1-2-5.9A19.9,19.9,0,0,1,0,30.6a27.5,27.5,0,0,1,.1-4,23.5,23.5,0,0,1,.5-2.8,16.6,16.6,0,0,1,1.6-4.1A12.8,12.8,0,0,1,4,17.1,12.1,12.1,0,0,1,6,15.4,10.4,10.4,0,0,1,10,13.7a12,12,0,0,1,4.9.1,9.8,9.8,0,0,1,4.5,2.4l1.3,1.4a14.3,14.3,0,0,1,2.3,4.2,17.3,17.3,0,0,1,.9,4,21.4,21.4,0,0,1,.1,2.5A.9.9,0,0,1,24,28.9Zm-2.3-2c0-.3,0-.5,0-.7l-.3-1.7A13.8,13.8,0,0,0,19.8,20a8.8,8.8,0,0,0-4-3.8,8,8,0,0,0-2.6-.7H11.4a8,8,0,0,0-2.8.7,8.4,8.4,0,0,0-3.1,2.3,12.1,12.1,0,0,0-2.3,4.2A18.8,18.8,0,0,0,2.5,26a3.2,3.2,0,0,0,0,.9Z"/><path d="M51.8,35.8l2.1,1a1.3,1.3,0,0,1-.2.5,15.5,15.5,0,0,1-1.5,2.8,11.1,11.1,0,0,1-3.2,3.1,10.3,10.3,0,0,1-4.4,1.5H42.2a10.7,10.7,0,0,1-3.4-.7A10.1,10.1,0,0,1,35,41.5a14.6,14.6,0,0,1-2.8-4.5,19.1,19.1,0,0,1-1.1-4.7A27.5,27.5,0,0,1,31,28a20.3,20.3,0,0,1,1-5.7,14.1,14.1,0,0,1,3.7-6,10.1,10.1,0,0,1,5.5-2.7,12.3,12.3,0,0,1,3.3,0,10,10,0,0,1,3.3.9A10.9,10.9,0,0,1,51,16.9a13,13,0,0,1,2.7,4.6h0l-2.1.9v-.2a14.6,14.6,0,0,0-1.2-2.7,8.6,8.6,0,0,0-2.1-2.5,7.1,7.1,0,0,0-2.8-1.3,10,10,0,0,0-3.7-.1,7.7,7.7,0,0,0-4.4,2.2,11.4,11.4,0,0,0-2.6,4A17.6,17.6,0,0,0,33.4,27a27.5,27.5,0,0,0-.1,3.6c0,.7.1,1.4.2,2.2a17.6,17.6,0,0,0,.7,2.9,12.5,12.5,0,0,0,1.3,2.9,10.4,10.4,0,0,0,1.8,2.2,7.9,7.9,0,0,0,3.5,1.9l1.5.2a11.1,11.1,0,0,0,3.2-.3A7.7,7.7,0,0,0,50,39.5a11.6,11.6,0,0,0,1.6-3.3Z"/><path d="M107.4,16.3h-5.1a7.2,7.2,0,0,1,0-2h5.1a.9.9,0,0,0,.1-.5c0-1.3,0-2.6,0-3.8s0-3.7,0-5.5a1.3,1.3,0,0,1,0-.6l2.2-.5a.8.8,0,0,1,.1.5q0,1.9,0,3.7t0,6.2c0,.2,0,.3,0,.5h7.6a7.5,7.5,0,0,1,0,1.9h-7.6v.2c0,.1,0,.3,0,.4q0,10.3,0,20.6a8.5,8.5,0,0,0,.4,2.7,3.8,3.8,0,0,0,2.2,2.5l1.1.3h1.4l2.5-.2h1c0,.7-.1,1.3-.1,1.9a1.7,1.7,0,0,1-.8.2l-2.4.2h-2.3a6.1,6.1,0,0,1-2.8-1.1,5.6,5.6,0,0,1-1.7-1.9,7.5,7.5,0,0,1-.9-3.3c0-.6-.1-1.2-.1-1.7q0-10,0-20.1A1.2,1.2,0,0,0,107.4,16.3Z"/><path d="M64,44.9H61.8c-.1-.1-.1-.2-.1-.4s0-1.8,0-2.6,0-3.9,0-5.8q0-5.4,0-10.7t0-13.1q0-5.8,0-11.6c0-.2,0-.3,0-.5H64a.8.8,0,0,1,.1.5q0,2,0,3.9,0,3.8,0,7.6,0,6.2,0,12.5t0,9.6q0,5.1,0,10.3C64.1,44.6,64.1,44.7,64,44.9Z"/><path d="M13.9.1h3.4L13,8H11.3a.4.4,0,0,1,0-.1Z"/></g></svg>