<svg id="Layer_1" data-name="Layer 1" xmlns="http://www.w3.org/2000/svg" viewBox="0 0 70 70"><defs><style>.cls-1{opacity:0.35;}</style></defs><title>Untitled-3</title><g class="cls-1"><path d="M35,70A35,35,0,1,1,70,35.6,35,35,0,0,1,35,70ZM35,68.4a33.4,33.4,0,0,0,.3-66.8C16.7,1.6,1.6,16.4,1.6,34.7A33.4,33.4,0,0,0,35,68.4Z"/><path d="M17.6,35a17.4,17.4,0,1,1,17,17.4A17.4,17.4,0,0,1,17.6,35Zm32.3,5a16,16,0,0,0,.7-6.7A15.7,15.7,0,1,0,49.1,42a2.8,2.8,0,0,0-.8-3.3,2,2,0,0,0-2.8,0A5.5,5.5,0,0,1,40.6,40h-.7a3.7,3.7,0,0,0-3.5,2.2l-.4.7h-.3c0-.6,0-1.3,0-1.9.2-2.7,1.1-5.1,3.9-6.2a6.5,6.5,0,0,1,7.5,1.7A36.8,36.8,0,0,1,49.9,39.9Z"/><path d="M22.8,8.2a1.4,1.4,0,0,1,2.1.2c1.2,1.5,2.6,2.9,3.9,4.3l.3-.3L27.5,7.6c-.3-.8-.2-1,.7-1.3l2.6,7.4c-1,.8-1.2.8-2-.1L24.3,9.4l2.1,6-1.1.4Z"/><path d="M52.9,11.7a1.3,1.3,0,0,1,.8,1.9c-.6,1.8-1.1,3.7-1.8,5.9l3.7-4c.5-.5.9-.7,1.5.1l-5.4,5.7a1.4,1.4,0,0,1-.8-2,48.6,48.6,0,0,0,1.5-5.5l-4.1,4.3-.9-.7Z"/><path d="M14.4,28.9,7,25.6c.9-1.7,1-3.9,3.3-4.2a5.2,5.2,0,0,1,5,2.2C16.6,25.4,15,27,14.4,28.9Zm-6-4,5.5,2.4c1.3-2.3,1-3.2-1.3-4.3S9.3,22.3,8.4,24.9Z"/><path d="M61.6,26.8v-.2c.1-1.9-.4-2.9-1.5-3.2a4.8,4.8,0,0,0-4.4,1.8c-.6,1.2.1,2.1.7,3.1l1.9-.7a3.2,3.2,0,0,1-.3-1c0-.3.2-.5.3-.8l.6.4h0c.8,1.8.8,1.9-1,2.6s-2,.8-3-1.1-.6-3.7,1.5-4.8a7.7,7.7,0,0,1,2.5-.8,3.6,3.6,0,0,1,3.8,4.3C62.5,27.2,62.1,27.1,61.6,26.8Z"/><path d="M22.8,17c-.7,1-.7,1-2.7-.1a13.6,13.6,0,0,0-1.8,1.7c-.2.3,0,.9.2,1.3s.3,1.1-.6,1.5l-.8-1.6c-.8-1.8-1.7-3.6-2.4-5.5a1.1,1.1,0,0,1,.2-1,.9.9,0,0,1,.9-.2Zm-5.3.9,1.7-1.5-3.3-1.9Z"/><path d="M43.9,63.4c-.7.5-1.3.5-1.5-.3a1.4,1.4,0,0,0-2-.8H40c-1,0-1.4.5-1.3,1.5s-.2,1.1-1.2.9.1-1.7.2-2.6.3-3.3.6-5a1.2,1.2,0,0,1,.7-.8,1,1,0,0,1,.9.4Zm-2.7-2.3-1.9-3.3-.3,3.8Z"/><path d="M32.6,63.9c0,.8-.4,1-1,.9l-3.2-.6c-.3-.1-.7-.6-.7-.8.3-2.4.7-4.7,1.2-7.2l4.7.8-.2,1-3.5-.5-.4,2.3,2.1.3c.7.1,1,.4.6,1.1l-2.9-.4-.4,2.4Z"/><path d="M39.4,12.2c.7.5.6.9-.1,1.2-2.4,1.3-4.8.1-4.9-2.5a8.2,8.2,0,0,1,.7-3.7,2.9,2.9,0,0,1,4.5-.8,4.3,4.3,0,0,1,.8,1.8c0,.1-.4.4-.6.6s-.5-.4-.5-.6a1.6,1.6,0,0,0-1.5-1.6A1.6,1.6,0,0,0,36,7.9a9.9,9.9,0,0,0-.4,3c.1,1.6,1.4,2.3,2.9,1.6Z"/><path d="M44.5,54.5,48.5,52c.5.5.5.9,0,1.3l-2.3,1.5,1.3,2,2.4-1.5.6.8L48,57.6l1.9,2.9-1,.7Z"/><path d="M22.8,61.4c-.3.7-.7.8-1.2.5a22,22,0,0,1-2.5-1.5,1.2,1.2,0,0,1-.3-1.1c1.1-2.1,2.3-4.2,3.5-6.2.9.3,1,.7.6,1.4l-2.9,5.2Z"/><path d="M12.5,40.3a1.8,1.8,0,0,1-3.5.1,1.8,1.8,0,1,1,3.5-.1Z"/><path d="M44.1,15.7,43,15.2l3.2-7.3,1.1.5Z"/><path d="M61.5,41a1.8,1.8,0,1,1-3.5-.1,1.7,1.7,0,0,1,1.8-1.7A1.7,1.7,0,0,1,61.5,41Z"/><path d="M25,38.3a5,5,0,0,1,.3-.9,3.7,3.7,0,0,0,.2-2.9L25.1,33c-1-3.2,0-5.8,2.5-7.9s5.3-2,8.1-.8h.1v.2c-2.6-.1-3.9,1.7-5,3.7a24.5,24.5,0,0,1-2.9,3.7,6.8,6.8,0,0,0-1.7,3.4,28.4,28.4,0,0,1-.8,2.8Z"/><path d="M38.6,31c-.5.4-.7.7-1,.7s-.5-.4-.8-.6.4-.7.7-.8S38.1,30.7,38.6,31Z"/></g></svg>