<svg id="Layer_1" data-name="Layer 1" xmlns="http://www.w3.org/2000/svg" viewBox="0 0 102 80.6"><defs><style>.cls-1{opacity:0.35;}</style></defs><title>Untitled-3</title><g class="cls-1"><path d="M0,66.6H.1q0,1.4,0,2.8H0Q0,68,0,66.6Z"/><path d="M.1,60.1H0V58H.1Z"/><path d="M21.5,59.8a.8.8,0,0,0-.1.5c0,2.9,0,5.8,0,8.7,0,.4-.1.5-.5.5H18.6c-.3,0-.4,0-.4-.3,0-4.3,0-8.7,0-13,0-1.3,1.2-2,2.5-1.5a2.5,2.5,0,0,1,1.1.9l8.2,10.1c.3.3.4.4.6,0l8.1-10.2a2.1,2.1,0,0,1,2.2-.8,1.6,1.6,0,0,1,1.4,1.6c0,1.1,0,2.3,0,3.4,0,3.1,0,6.2,0,9.3,0,.5-.1.6-.6.6H39.7c-.4,0-.5-.1-.5-.5,0-2.9,0-5.8,0-8.7v-.6l-.3.4-6.5,8.3a2.4,2.4,0,0,1-4.1,0l-6.5-8.2C21.8,60,21.7,59.9,21.5,59.8Z"/><path d="M74.8,64l4.8,2.6,4.7,2.7H79.3a2,2,0,0,1-1.1-.3l-7.9-4.7-.4-.2c-.1.1-.1.3-.1.4s0,2.9,0,4.4-.1.4-.4.4H66.8c-.3,0-.3-.1-.3-.3q0-7.1,0-14.2c0-.3.1-.3.3-.3,4.1,0,8.2-.1,12.3.1a7.4,7.4,0,0,1,3.2.8,3.3,3.3,0,0,1,1.9,3.1q0,.8,0,1.6A3.2,3.2,0,0,1,82.4,63a7.1,7.1,0,0,1-3.3.9H74.8Zm-.2-2.9h4.3l1.4-.2a.8.8,0,0,0,.6-.9c0-.3,0-.7,0-1s-.2-1.5-1.5-1.7H70.1c-.3,0-.4.1-.3.4s0,2.1,0,3.2.1.4.4.4Z"/><path d="M51,31.9a7.6,7.6,0,1,1,7.6-7.6A7.6,7.6,0,0,1,51,31.9Zm-2.4-9.3L53,29.5l1.4-2.3a.3.3,0,0,0,0-.4l-2.5-4c-.1-.1-.1-.2-.3-.2Zm-4,0L49,29.5l1.4-2.3c.1-.2,0-.3,0-.4l-2.4-4a.4.4,0,0,0-.4-.2Zm12.6,0H52.6L55,26.5Z"/><path d="M.1,60.1V58a3,3,0,0,1,2-2.7,11.6,11.6,0,0,1,4.1-.7H8.8c.3,0,.4.1.4.4s0,1.4,0,2.1-.1.4-.4.4H5.4a4.3,4.3,0,0,0-1.5.3.9.9,0,0,0-.6.9c0,.1,0,.2,0,.4s.2,1.2,1.1,1.4l2.1.2c1.8,0,3.5-.1,5.3.1a7.8,7.8,0,0,1,2.8.8,3.2,3.2,0,0,1,2,3.2c0,.5,0,1,0,1.6a3.3,3.3,0,0,1-3,3,16.5,16.5,0,0,1-3,.3H.1V66.6H10.8a5.2,5.2,0,0,0,1.8-.3.9.9,0,0,0,.7-1c0-1.4-.2-1.7-1.6-1.8s-3.8-.1-5.8-.1a11,11,0,0,1-2.5-.3,5.4,5.4,0,0,1-2.4-1.2A2.9,2.9,0,0,1,.1,60.1Z"/><path d="M43.1,69.4l.3-.4,9.3-13.4a2.2,2.2,0,0,1,2.3-1.1,2.1,2.1,0,0,1,1.4.9l9.3,14h0c-.1.1-.2.1-.3.1H62.4a.7.7,0,0,1-.7-.4L54.7,58.7l-.3-.4c-.2.1-.2.3-.3.4L47.1,69a.8.8,0,0,1-.7.4Z"/><path d="M71.8,25.8h3.1c.3,0,.4,0,.4.4A24.1,24.1,0,0,1,69.6,40c-.4.4-.4.4-.8,0l-4.3-4.3c-.2-.2-.2-.3,0-.5a16.8,16.8,0,0,0,3.8-8.9c.1-.5.2-.6.7-.6Z"/><path d="M71.8,22.9H68.7c-.3,0-.4-.1-.4-.4a17.1,17.1,0,0,0-3.1-8.3l-.4-.5c-.5-.6-.5-.6.1-1.2l4.1-4.1c.3-.3.4-.2.6,0a24,24,0,0,1,5.6,12.2c.1.6.1,1.2.2,1.9s-.1.4-.3.4Z"/><path d="M30.2,25.8h3.1c.2,0,.4,0,.4.3a17.1,17.1,0,0,0,3.9,9.2c.1.2.1.3,0,.4L33,40.3c-.3.3-.4,0-.5-.1A24,24,0,0,1,28.2,33a24.4,24.4,0,0,1-1.5-6.8c0-.4.1-.4.4-.4Z"/><path d="M30.2,22.9H27.1c-.3,0-.4-.1-.4-.4A24,24,0,0,1,32.3,8.7c.5-.6.4-.5.9,0l4.2,4.2c.2.2.2.3,0,.6a17.1,17.1,0,0,0-3.7,8.4c-.1.4.1.8-.2,1s-.7.1-1.1.1Z"/><path d="M49.5,3.5c0,1,0,2.1,0,3.1s0,.4-.4.4a16.8,16.8,0,0,0-9,3.7c-.3.2-.4.2-.7-.1L35.2,6.4c-.2-.2-.3-.4,0-.6A24.1,24.1,0,0,1,47.7.2L49.1,0c.4-.1.5,0,.5.4S49.5,2.5,49.5,3.5Z"/><path d="M52.5,3.5c0-1,0-2,0-3s.2-.5.6-.5A24.4,24.4,0,0,1,64.4,4l2.5,1.9c.2.2.2.3,0,.5l-4.5,4.5c-.2.2-.3.1-.5,0A17,17,0,0,0,54,7.2H52.8c-.3,0-.4-.1-.4-.4S52.5,4.5,52.5,3.5Z"/><path d="M49.5,45.2c0,1,0,2,0,3s-.1.5-.5.4a24.2,24.2,0,0,1-13.3-5.3l-.7-.6c-.2-.2-.2-.3,0-.4l4.5-4.5c.2-.2.4-.1.6,0A17,17,0,0,0,46.1,41a14.9,14.9,0,0,0,3.1.6c.3,0,.4.1.4.4S49.5,44.1,49.5,45.2Z"/><path d="M52.5,45.1c0-1,0-2.1,0-3.1s0-.4.3-.4a16.8,16.8,0,0,0,9-3.7c.3-.2.4-.2.7,0l4.3,4.3c.3.3.2.4,0,.6a24.1,24.1,0,0,1-12.5,5.6l-1.5.2c-.3,0-.3-.1-.3-.3S52.5,46.2,52.5,45.1Z"/><path d="M61.3,23h1.9c.4,0,.5.1.5.5a12.4,12.4,0,0,1-4,10.1,12.7,12.7,0,0,1-20.6-4.7c-.2-.5-.2-.5.4-.5h1.8a.4.4,0,0,1,.4.3,9.9,9.9,0,0,0,7.8,5.8A10.2,10.2,0,0,0,61.1,26c0-.3,0-.3-.3-.3H59.2c-.3,0-.3-.1-.3-.3a6.3,6.3,0,0,0,0-2.1c-.1-.3.1-.3.3-.3Z"/><path d="M63,20.1H60.6a.4.4,0,0,1-.4-.3,9.9,9.9,0,0,0-7.7-5.6A10.2,10.2,0,0,0,41,22.6c0,.3,0,.3.3.3h1.6c.2,0,.3.1.3.3a6.5,6.5,0,0,0,0,2.1c0,.2,0,.3-.3.3H38.6c-.3,0-.3-.2-.3-.4A12.1,12.1,0,0,1,40.6,17a12.2,12.2,0,0,1,11.6-5.3c5,.5,8.5,3.3,10.6,7.9v.6Z"/><path d="M93.8,54.5h7.7c.4,0,.5.1.5.5s0,1.3,0,1.9-.1.4-.4.4H96c-.4,0-.6.1-.6.5,0,3.7,0,7.4,0,11.1,0,.4-.1.5-.5.5H92.7c-.4,0-.5-.1-.5-.5,0-3.7,0-7.4,0-11.1,0-.7.1-.6-.6-.6H86.1c-.4,0-.5-.1-.4-.5s0-1.3,0-1.9.1-.4.4-.4Z"/><path d="M35.7,75.3l-2.2,4.7a1,1,0,0,1-1.1.6.9.9,0,0,1-.9-.6l-3.2-7c-.1-.3,0-.3.2-.3h.1c1-.2,1.6.2,1.9,1.2s1.1,2.4,1.6,3.6a1.1,1.1,0,0,0,.3.5l.9-2.1,1.1-2.5a1.1,1.1,0,0,1,1-.8,1,1,0,0,1,1,.7l2.1,4.7a1.1,1.1,0,0,0,.3-.5l2-4.5a.5.5,0,0,1,.6-.4h1c.4,0,.4.1.2.4l-2.2,4.8-.9,1.9a1.1,1.1,0,0,1-1,.8,1.1,1.1,0,0,1-1-.8Z"/><path d="M68.8,77.8l4.8,2.7H70.8l-.4-.2-3.9-2.3c-.1-.1-.3-.3-.4-.2s-.1.3-.1.5,0,1.2,0,1.8-.1.4-.4.4h-1c-.3,0-.4-.1-.4-.4q0-3.5,0-7c0-.3.1-.4.4-.4h5.7a4.7,4.7,0,0,1,2.1.4,1.7,1.7,0,0,1,1,1.4,6.7,6.7,0,0,1,0,1.2,1.8,1.8,0,0,1-1.3,1.6l-1.5.3h-2Zm-.1-1.6h2c1.1,0,1.2-.1,1.2-1.2s-.1-.7-.7-.8-3.3,0-5-.1-.2.2-.2.3,0,.9,0,1.4.1.3.3.3Z"/><path d="M48.4,77.5h-3c-.3,0-.4.1-.4.4s.2,1.2,1.1,1.2h5.3c.4,0,.5.1.5.5s0,1-1,1H46.1a3.6,3.6,0,0,1-2-.6,1.7,1.7,0,0,1-.8-1.5c0-1.2,0-2.3,0-3.5a1.7,1.7,0,0,1,.9-1.6,4.5,4.5,0,0,1,2.1-.6h1.6c.3,0,.3.1.3.3s0,1.1-1.1,1.1H45.6c-.4.1-.7.3-.6.8s0,1,1,1h5.5c.3,0,.4.1.4.4s0,1-1,1Z"/><path d="M52.1,80.5l2.8-4,2.2-3.1a1.2,1.2,0,0,1,2.1,0l4.6,6.8c.1.1.2.2.1.3h-.3a2,2,0,0,1-2.3-1.1c-.9-1.5-2-2.9-2.9-4.4s-.3-.4-.6,0l-3.4,5.1a.7.7,0,0,1-.7.4Z"/><path d="M54.4,65.1l3.1,4.4H51.4Z"/><path d="M56.5,80.5l1.4-2.1c.1-.2.2-.1.3,0l1.3,1.8c.1.1.1.3-.1.3Z"/></g></svg>