<svg id="Layer_1" data-name="Layer 1" xmlns="http://www.w3.org/2000/svg" viewBox="0 0 161.3 53.3"><defs><style>.cls-1{opacity:0.35;}</style></defs><title>Untitled-3</title><g class="cls-1"><path d="M117.4,24.5c.2-6.7-.1-13.5.4-20.2a10.8,10.8,0,0,1,.4-2.1c.5-1.9,1.5-2.5,3.5-2.1a18.2,18.2,0,0,1,5.2,2.3l30.2,17.5a14.7,14.7,0,0,1,3.4,2.6,2.5,2.5,0,0,1,0,3.9,16.1,16.1,0,0,1-3.7,2.8l-31,17.9a15.4,15.4,0,0,1-3.9,1.7c-1.9.5-2.6-.1-3.7-1.8a6,6,0,0,1-.7-3.6Q117.4,34,117.4,24.5Zm31.1,1,2.3.2a1.6,1.6,0,0,0-.9-1.1l-1-.7-15-8.3c0-.6-.3-.8-.8-.5h-.1c.3-.5.1-.7-.4-.9a11.4,11.4,0,0,0-2.4-1.1c-2.1-.3-2.7-3-4.9-2.8h0c-1.4,1-.3,2.2-.3,3.3,0,7.1,0,14.1,0,21.2,0,.3.2,1-.2.9s-.8.7-.8,1.1.7,1,1.4.9h.5c.9.1,1.8.3,1.9-1l.4-.4h.3a5.1,5.1,0,0,0,4.7-2.4c1.8-.4,3.9-.3,4.6-2.6h0c2.3-.4,4.5-1,5.8-3.2h0a6,6,0,0,0,4.9-2.7Z"/><path d="M132.9,15.1c-2.1-1.2-4.5-1.9-6.4-3.3s-1.1-.4-1.1.5,0,.8,0,1.3q0,12.1,0,24.2c-.7.1-1.4-.2-1.4-.9s-.6-1.5.8-1.1.2-.6.2-.9c0-7.1,0-14.1,0-21.2,0-1.1-1.1-2.4.3-3.3h0c2.2-.1,2.8,2.5,4.9,2.8a11.4,11.4,0,0,1,2.4,1.1C133,14.4,133.2,14.7,132.9,15.1Z"/><path d="M137.7,31.3a37.5,37.5,0,0,1,5.8-3.2C142.2,30.3,140,31,137.7,31.3Z"/><path d="M135.1,32.5c.9-.4,1.6-1.2,2.6-1.2-.7,2.3-2.8,2.2-4.6,2.6h-.1v-.3h0a1.9,1.9,0,0,0,1.1-.6h0A1.1,1.1,0,0,0,135.1,32.5Z"/><path d="M133.2,34a5.1,5.1,0,0,1-4.7,2.4v-.3h0a10.7,10.7,0,0,0,3.3-1.8h0l1.3-.5Z"/><path d="M143.6,28.2a28.3,28.3,0,0,1,4.9-2.7A6,6,0,0,1,143.6,28.2Z"/><path d="M148.5,25.5l1.4-.9a1.6,1.6,0,0,1,.9,1.1Z"/><path d="M125.8,37.8a5.4,5.4,0,0,1,1.9-1C127.7,38.1,126.7,37.9,125.8,37.8Z"/><path d="M133.8,15.6l-.8-.5C133.6,14.9,133.8,15.1,133.8,15.6Z"/><path d="M128.5,36.1v.3h-.3Z"/><path d="M125.3,10.3h0Z"/><path d="M4.7,18.5V5.4H0V2.7H12.5V5.4H7.9V18.5Z"/><path d="M76.6,12.4V9.7h6.8V16a8.6,8.6,0,0,1-2.9,1.7,10.5,10.5,0,0,1-3.8.7,8.6,8.6,0,0,1-4.3-1,6.6,6.6,0,0,1-2.8-3,9.6,9.6,0,0,1-.9-4.2,9.1,9.1,0,0,1,1-4.4,6.9,6.9,0,0,1,3-2.9,8.1,8.1,0,0,1,3.8-.8,7.5,7.5,0,0,1,4.6,1.2,5.6,5.6,0,0,1,2.1,3.4l-3.2.6a3.3,3.3,0,0,0-1.3-1.8,3.8,3.8,0,0,0-2.3-.7,4.3,4.3,0,0,0-3.3,1.3A5.6,5.6,0,0,0,72,10.1a6.2,6.2,0,0,0,1.2,4.2,4.2,4.2,0,0,0,3.3,1.4,5.5,5.5,0,0,0,2-.4,6.9,6.9,0,0,0,1.7-1v-2Z"/><path d="M13.4,11.9A8.2,8.2,0,0,1,14,8.5a6.1,6.1,0,0,1,1.2-1.8,5,5,0,0,1,1.7-1.2,7.1,7.1,0,0,1,2.8-.5,6.1,6.1,0,0,1,4.6,1.8,6.8,6.8,0,0,1,1.7,4.9,6.8,6.8,0,0,1-1.7,4.9,6,6,0,0,1-4.5,1.8,6.1,6.1,0,0,1-4.6-1.8A6.7,6.7,0,0,1,13.4,11.9Zm2.7-.1a4.8,4.8,0,0,0,1,3.3,3.5,3.5,0,0,0,5.1,0,4.9,4.9,0,0,0,1-3.4,4.9,4.9,0,0,0-1-3.3,3.3,3.3,0,0,0-2.6-1.1,3.3,3.3,0,0,0-2.6,1.1A4.9,4.9,0,0,0,16.1,11.8Z"/><path d="M31.1,18.2V7.5H27.3V5.3H37.6V7.5H33.8V18.2Z"/><path d="M49.9,18.2H47l-1.1-2.9H40.7l-1.1,2.9H36.9l5-12.9h2.8Zm-4.8-5.1L43.3,8.3l-1.7,4.8Z"/><path d="M51.6,18.2V5.4h2.6V16.1h6.5v2.2Z"/><path d="M86.1,18.5V5.5h2.6V18.5Z"/><path d="M91.3,18.5V5.5h8.9V7.7H93.9v3.1h5.4V13H93.9v5.5Z"/><path d="M105.2,18.5V7.7h-3.8V5.5h10.3V7.7h-3.8V18.5Z"/><path d="M16.1,31.3a8.2,8.2,0,0,1,.6-3.3,6.1,6.1,0,0,1,1.2-1.8,5,5,0,0,1,1.7-1.2,7.1,7.1,0,0,1,2.8-.5,6.1,6.1,0,0,1,4.6,1.8,6.8,6.8,0,0,1,1.7,4.9,6.8,6.8,0,0,1-1.7,4.9,6,6,0,0,1-4.5,1.8,6.1,6.1,0,0,1-4.6-1.8A6.7,6.7,0,0,1,16.1,31.3Zm2.7-.1a4.8,4.8,0,0,0,1,3.3,3.5,3.5,0,0,0,5.1,0,4.9,4.9,0,0,0,1-3.4,4.9,4.9,0,0,0-1-3.3,3.3,3.3,0,0,0-2.6-1.1,3.3,3.3,0,0,0-2.6,1.1A4.9,4.9,0,0,0,18.7,31.2Z"/><path d="M31.2,37.9V25.1h2.6V35.7h6.5v2.2Z"/><path d="M42.6,24.8h2.6v7a14.5,14.5,0,0,0,.1,2.2,2.1,2.1,0,0,0,.8,1.3,2.8,2.8,0,0,0,1.7.5,2.6,2.6,0,0,0,1.7-.5,1.8,1.8,0,0,0,.7-1.1,14.5,14.5,0,0,0,.1-2.2V24.8h2.6v6.8a17.4,17.4,0,0,1-.2,3.3,3.6,3.6,0,0,1-.8,1.6,3.9,3.9,0,0,1-1.5,1.1,6.6,6.6,0,0,1-2.5.4,7.2,7.2,0,0,1-2.8-.4,4,4,0,0,1-1.5-1.1,3.6,3.6,0,0,1-.7-1.4,15.7,15.7,0,0,1-.3-3.3Z"/><path d="M59,37.9V27.2H55.2V25H65.4v2.2H61.6V37.9Z"/><path d="M67.5,37.9V25h2.6V37.9Z"/><path d="M72.5,31.3a8.2,8.2,0,0,1,.6-3.3,6.1,6.1,0,0,1,1.2-1.8A5,5,0,0,1,76,25.1a7.1,7.1,0,0,1,2.8-.5,6.1,6.1,0,0,1,4.6,1.8,6.8,6.8,0,0,1,1.7,4.9,6.8,6.8,0,0,1-1.7,4.9,6,6,0,0,1-4.5,1.8,6.1,6.1,0,0,1-4.6-1.8A6.7,6.7,0,0,1,72.5,31.3Zm2.7-.1a4.8,4.8,0,0,0,1,3.3,3.5,3.5,0,0,0,5.1,0,4.9,4.9,0,0,0,1-3.4,4.9,4.9,0,0,0-1-3.3,3.6,3.6,0,0,0-5.2,0A4.9,4.9,0,0,0,75.2,31.2Z"/><path d="M87.6,37.9V25h2.5l5.3,8.6V25h2.4V37.9H95.2L90,29.5v8.4Z"/><path d="M100.4,33.5l2.5-.2a3.1,3.1,0,0,0,.9,1.9,2.8,2.8,0,0,0,1.9.6,2.9,2.9,0,0,0,1.9-.5,1.6,1.6,0,0,0,.6-1.2,1.2,1.2,0,0,0-.3-.8,2.1,2.1,0,0,0-.9-.6L105,32a7.1,7.1,0,0,1-2.9-1.3,3.4,3.4,0,0,1-1.2-2.6,3.3,3.3,0,0,1,.6-1.8A3.5,3.5,0,0,1,103,25a6.5,6.5,0,0,1,2.5-.4,5.5,5.5,0,0,1,3.7,1.1,3.8,3.8,0,0,1,1.3,2.8h-2.6a2.2,2.2,0,0,0-.7-1.4,2.6,2.6,0,0,0-1.7-.4,3,3,0,0,0-1.8.5.9.9,0,0,0-.4.8,1,1,0,0,0,.4.8,6.9,6.9,0,0,0,2.4.9,12.6,12.6,0,0,1,2.8.9,3.6,3.6,0,0,1,1.4,1.3,4.1,4.1,0,0,1-.1,4.1,3.7,3.7,0,0,1-1.7,1.4,7.3,7.3,0,0,1-2.8.5,5.6,5.6,0,0,1-3.8-1.1A4.9,4.9,0,0,1,100.4,33.5Z"/><path d="M0,32.5l3.1-.3a3.8,3.8,0,0,0,1.1,2.3,3.4,3.4,0,0,0,2.3.7,3.5,3.5,0,0,0,2.3-.6A1.9,1.9,0,0,0,9.6,33a1.4,1.4,0,0,0-.3-1,2.6,2.6,0,0,0-1.1-.7l-2.5-.7A8.6,8.6,0,0,1,2,29.2,4.1,4.1,0,0,1,.6,26a4,4,0,0,1,.7-2.2,4.3,4.3,0,0,1,2-1.6,7.9,7.9,0,0,1,3.1-.5,6.6,6.6,0,0,1,4.5,1.3,4.6,4.6,0,0,1,1.6,3.5H9.2a2.7,2.7,0,0,0-.9-1.7,3.2,3.2,0,0,0-2-.5,3.6,3.6,0,0,0-2.2.6,1.1,1.1,0,0,0-.5,1,1.2,1.2,0,0,0,.5,1A8.3,8.3,0,0,0,7,27.8a15.4,15.4,0,0,1,3.4,1.1,4.4,4.4,0,0,1,1.7,1.6,5,5,0,0,1-.1,5,4.5,4.5,0,0,1-2.1,1.8,8.9,8.9,0,0,1-3.4.6,6.8,6.8,0,0,1-4.6-1.4A6,6,0,0,1,0,32.5Z"/><path d="M41.4,45.9a.9.9,0,0,0-.7.3,1.5,1.5,0,0,0-.3,1,1.6,1.6,0,0,0,.3,1.1,1,1,0,0,0,1.5,0,1.6,1.6,0,0,0,.3-1,1.5,1.5,0,0,0-.3-1A.9.9,0,0,0,41.4,45.9Z"/><path d="M55.2,45.9a1,1,0,0,0-.8.4,2,2,0,0,0,0,2.1,1,1,0,0,0,1.6,0,1.6,1.6,0,0,0,.3-1.1,1.5,1.5,0,0,0-.3-1A1,1,0,0,0,55.2,45.9Z"/><path d="M68.9,45.9a1,1,0,0,0-.8.4,2,2,0,0,0,0,2.1,1,1,0,0,0,1.6,0,1.6,1.6,0,0,0,.3-1.1,1.5,1.5,0,0,0-.3-1A1,1,0,0,0,68.9,45.9Z"/><path d="M29.5,45.9a1,1,0,0,0-.8.4,2,2,0,0,0,0,2.1,1,1,0,0,0,1.6,0,1.6,1.6,0,0,0,.3-1.1,1.5,1.5,0,0,0-.3-1A1,1,0,0,0,29.5,45.9Z"/><path d="M35,47.6l-.2.2a.6.6,0,0,0,.1.7l.6.2.6-.2.4-.4a1.5,1.5,0,0,0,.1-.6v-.2l-1,.2Z"/><path d="M108,40.6H7.8a5.8,5.8,0,0,0-5.8,5.8v1.2a5.8,5.8,0,0,0,5.8,5.8H108a5.8,5.8,0,0,0,5.8-5.8V46.3A5.8,5.8,0,0,0,108,40.6ZM11.8,49.1h-.7l-.6-2.2v-.6l-.8,2.9H9L7.8,45.4h.7l.6,2.1.2.8.2-.8.6-2.2h.6l.6,2.2.2.7.2-.7.6-2.1h.6Zm5.3,0h-.7l-.6-2.2v-.6l-.8,2.9h-.7l-1.1-3.7h.7l.6,2.1.2.8.2-.8.6-2.2H16l.6,2.2.2.7.2-.7.6-2.1h.6Zm5.3,0h-.7l-.6-2.2v-.6l-.8,2.9h-.7l-1.1-3.7h.7l.6,2.1.2.8.2-.8.6-2.2h.6l.6,2.2.2.7.2-.7.6-2.1h.6Zm2.3,0h-.7v-.7h.7Zm2.2,0h-.5l-.3-.3A2.3,2.3,0,0,1,26,48V45.9h-.5v-.5H26v-.9l.6-.4v1.3h.6v.5h-.6v2.2a1.1,1.1,0,0,0,0,.3h.6v.6Zm4.1-.8a1.5,1.5,0,0,1-.6.6l-.9.2a1.7,1.7,0,0,1-1.3-.5,2,2,0,0,1-.5-1.4,1.9,1.9,0,0,1,.6-1.5,1.7,1.7,0,0,1,1.2-.4,1.7,1.7,0,0,1,1.3.5,1.9,1.9,0,0,1,.5,1.4A2.5,2.5,0,0,1,31,48.4Zm2.1.8h-.5l-.3-.3a2.3,2.3,0,0,1-.1-.7V45.9h-.5v-.5h.5v-.9l.6-.4v1.3h.6v.5h-.6v2.2a1.1,1.1,0,0,0,0,.3h.6v.6Zm3.7,0a1.3,1.3,0,0,1-.1-.5l-.7.4h-.7a1.4,1.4,0,0,1-.9-.3,1,1,0,0,1-.3-.8,1,1,0,0,1,.1-.5l.3-.4.5-.2h.6l1.1-.2v-.2a.7.7,0,0,0-.2-.5l-.7-.2L35,46a1,1,0,0,0-.3.6h-.6a1.5,1.5,0,0,1,.3-.6l.6-.4h1.6l.4.3.2.4a3.5,3.5,0,0,1,0,.6v.8a8.9,8.9,0,0,0,0,1.1l.2.4Zm2.2,0h-.6V44h.6Zm4.1-.5a3,3,0,0,1-.2,1.2,1.3,1.3,0,0,1-.6.6l-.9.2a1.8,1.8,0,0,1-1.1-.3,1,1,0,0,1-.4-.9h.6a.6.6,0,0,0,.2.4l.6.2.7-.2a.9.9,0,0,0,.3-.5,4,4,0,0,0,0-.8,1.3,1.3,0,0,1-1,.5,1.4,1.4,0,0,1-1.2-.6,2.1,2.1,0,0,1-.4-1.3,2.5,2.5,0,0,1,.2-1,1.5,1.5,0,0,1,.6-.7l.9-.2a1.3,1.3,0,0,1,1.1.5v-.4H43Zm1.7.5h-.6V45.4h.6Zm0-4.4h-.6V44h.6Zm2.6.7v.5h-.7v3.2h-.6V45.9h-.6v-.5h.6V45a1.7,1.7,0,0,1,.1-.6l.3-.4.6-.2h.6v.5h-.8a.7.7,0,0,0-.1.5v.3Zm1.6,3.8h-.5l-.3-.3A2.3,2.3,0,0,1,48,48V45.9h-.5v-.5H48v-.9l.6-.4v1.3h.6v.5h-.6v2.2a1.1,1.1,0,0,0,0,.3h.6v.6Zm3.8-.5-.5.4-.8.2a1.7,1.7,0,0,1-1.1-.3,1.4,1.4,0,0,1-.5-.9h.6a.9.9,0,0,0,.3.6l.7.2.6-.2a.5.5,0,0,0,.2-.4.4.4,0,0,0-.2-.3l-.6-.2-1-.3-.4-.4a.9.9,0,0,1-.1-.5,1,1,0,0,1,.1-.5l.3-.4.4-.2H52l.5.3a1.3,1.3,0,0,1,.2.6h-.6a.7.7,0,0,0-.2-.4l-.6-.2h-.6a.4.4,0,0,0-.2.3v.2l.2.2.6.2.9.3.4.3a.9.9,0,0,1,.2.5A1.1,1.1,0,0,1,52.7,48.6Zm4.1-.3a1.5,1.5,0,0,1-.6.6l-.9.2a1.7,1.7,0,0,1-1.3-.5,2,2,0,0,1-.5-1.4,1.9,1.9,0,0,1,.6-1.5,1.7,1.7,0,0,1,1.2-.4,1.7,1.7,0,0,1,1.3.5,1.9,1.9,0,0,1,.5,1.4A2.5,2.5,0,0,1,56.7,48.4Zm1.7.8h-.6V44h.6Zm4.1,0H62v-.5a1.4,1.4,0,0,1-1.2.6h-.6l-.4-.3-.2-.5a3.2,3.2,0,0,1,0-.6V45.4h.6v2.1a3.7,3.7,0,0,0,0,.7.7.7,0,0,0,.3.4h1l.4-.4a2,2,0,0,0,.1-.7v-2h.6Zm2.1,0h-.5l-.3-.3a2.3,2.3,0,0,1-.1-.7V45.9h-.5v-.5h.5v-.9l.6-.4v1.3H65v.5h-.6v2.2a1.1,1.1,0,0,0,0,.3H65v.6Zm1.7,0h-.6V45.4h.6Zm0-4.4h-.6V44h.6Zm4.1,3.6a1.5,1.5,0,0,1-.6.6l-.9.2a1.7,1.7,0,0,1-1.3-.5,2,2,0,0,1-.5-1.4,1.9,1.9,0,0,1,.6-1.5,1.7,1.7,0,0,1,1.2-.4,1.7,1.7,0,0,1,1.3.5,1.9,1.9,0,0,1,.5,1.4A2.5,2.5,0,0,1,70.5,48.4Zm4.1.8h-.6V46.9a1.7,1.7,0,0,0-.1-.6l-.3-.3h-.4l-.7.3a1.3,1.3,0,0,0-.3,1v2h-.6V45.4h.6v.5a1.3,1.3,0,0,1,1.2-.6h.6l.4.3.2.5a3.6,3.6,0,0,1,0,.6Zm3.7-.5-.5.4-.8.2a1.7,1.7,0,0,1-1.1-.3,1.4,1.4,0,0,1-.5-.9H76a.9.9,0,0,0,.3.6l.7.2.6-.2a.5.5,0,0,0,.2-.4.4.4,0,0,0-.2-.3l-.6-.2-1-.3-.4-.4a.9.9,0,0,1-.1-.5,1,1,0,0,1,.1-.5l.3-.4.4-.2h1.3l.5.3a1.3,1.3,0,0,1,.2.6h-.6a.7.7,0,0,0-.2-.4l-.6-.2h-.6a.4.4,0,0,0-.2.3v.2l.2.2.6.2.9.3.4.3a.9.9,0,0,1,.2.5A1.1,1.1,0,0,1,78.3,48.6Zm1.9.5h-.7v-.7h.7Zm3.7-.3a1.5,1.5,0,0,1-1,.4,1.6,1.6,0,0,1-1.2-.5,2,2,0,0,1-.5-1.4,2.6,2.6,0,0,1,.2-1.1,1.4,1.4,0,0,1,.6-.7l.9-.2a1.5,1.5,0,0,1,1,.3,1.4,1.4,0,0,1,.5.9h-.6a1,1,0,0,0-.3-.6l-.5-.2a1,1,0,0,0-.8.3,1.6,1.6,0,0,0-.3,1.1,1.7,1.7,0,0,0,.3,1.1.9.9,0,0,0,.7.3l.6-.2a1.1,1.1,0,0,0,.3-.7h.6A1.6,1.6,0,0,1,84,48.9Zm4.2-.5a1.5,1.5,0,0,1-.6.6l-.9.2a1.7,1.7,0,0,1-1.3-.5,2,2,0,0,1-.5-1.4,1.9,1.9,0,0,1,.6-1.5,1.7,1.7,0,0,1,1.2-.4,1.7,1.7,0,0,1,1.3.5,1.9,1.9,0,0,1,.5,1.4A2.5,2.5,0,0,1,88.2,48.4Zm6.1.8h-.6V46.8a1.7,1.7,0,0,0-.1-.5l-.2-.3H93a.9.9,0,0,0-.7.3,1.1,1.1,0,0,0-.3.8v2.2h-.6V46.7a1.1,1.1,0,0,0-.2-.6l-.5-.2h-.5l-.3.4a2.3,2.3,0,0,0-.1.8v1.9h-.6V45.4h.6v.5l.5-.4.7-.2.7.2a.9.9,0,0,1,.4.5,1.3,1.3,0,0,1,1.1-.7,1.1,1.1,0,0,1,.9.3,1.3,1.3,0,0,1,.3.9Z"/><path d="M86.6,45.9a1,1,0,0,0-.8.4,2,2,0,0,0,0,2.1,1,1,0,0,0,1.6,0,1.6,1.6,0,0,0,.3-1.1,1.5,1.5,0,0,0-.3-1A1,1,0,0,0,86.6,45.9Z"/></g></svg>