<svg id="Layer_1" data-name="Layer 1" xmlns="http://www.w3.org/2000/svg" viewBox="0 0 65.9 65.9"><defs><style>.cls-1{opacity:0.35;}</style></defs><title>Untitled-3</title><g class="cls-1"><path d="M33,65.9a33,33,0,1,1,33-32.5A33,33,0,0,1,33,65.9ZM47.3,48.6h.2l.7-.7A15.1,15.1,0,0,0,50.4,45a7.6,7.6,0,0,0,.7-1.1,18.6,18.6,0,0,0,1.5-3.1,15.5,15.5,0,0,0,.9-2.9h0v-.2h0a16.6,16.6,0,0,0,.4-1.9,19.3,19.3,0,0,0,.1-2.8,2.2,2.2,0,0,0,0-.5c0-.5-.1-1-.1-1.5a6.5,6.5,0,0,0-.2-1.6,5.5,5.5,0,0,0-.3-1.2c-.2-.8-.4-1.5-.7-2.3l-.2-.4a14.2,14.2,0,0,0-.9-2l-.3-.6a15.8,15.8,0,0,0-1.3-1.9l-.4-.6a14.9,14.9,0,0,0-1.4-1.7,8.3,8.3,0,0,0-1.3-1.2,20.6,20.6,0,0,0-3.3-2.5,24.9,24.9,0,0,0-4.1-2l-1.5-.5-1-.2-.8-.2H29.4l-2.3.5a21,21,0,0,0-6.3,3.1,17.1,17.1,0,0,0-2.2,1.7h0a.7.7,0,0,0-.4.3l-.2.2H18a17.4,17.4,0,0,0-1.6,1.8,2.9,2.9,0,0,0-.6.9h-.1c-.1,0-.2,0-.1.1a10,10,0,0,0-1.3,2.1,16.8,16.8,0,0,0-1.4,3.2,16.5,16.5,0,0,0-.8,3.2,8.2,8.2,0,0,0-.2,1.3s0,.1,0,.1a6,6,0,0,0-.1,1.1,19.8,19.8,0,0,0,.5,5.9,18.1,18.1,0,0,0,1.5,4.3,15.1,15.1,0,0,0,1.3,2.4,2.6,2.6,0,0,0,.4.6,17.1,17.1,0,0,0,2.1,2.5l.6.6h.1a18.2,18.2,0,0,0,3.1,2.5l.4.2a20.5,20.5,0,0,0,9.5,3.1h2.6L36,54a20.9,20.9,0,0,0,5.4-1.6,19.9,19.9,0,0,0,3.8-2.2h.1a19.7,19.7,0,0,0,1.8-1.5ZM59.9,20.7s0,0,0,.1h0a1.7,1.7,0,0,0-.2-.6,18.4,18.4,0,0,0-1.3-2.3c0,.3,0,.5.1.7a.4.4,0,0,1-.2.4l-1.7,1.1a.4.4,0,0,1-.6,0l-.5-.3,1.4,2.5a3.5,3.5,0,0,0,0-.7.3.3,0,0,1,.2-.4l1.9-1a.3.3,0,0,1,.4,0C59.5,20.4,59.7,20.6,59.9,20.7ZM7.6,18l.5-.4c.2-.1.3-.1.4.1a18.5,18.5,0,0,0,1.3,1.9.8.8,0,0,1,.2.7,3.6,3.6,0,0,0,0,.6l.3-.6c.1-.2.4-.4.4-.6s-.3-.4-.4-.6a.2.2,0,0,1,0-.4l.5-.6c.1-.2.3-.2.5-.1s.2.3.2.4a1,1,0,0,0,0,.4l1.4-2c-.5.2-1,0-1.4-.2L9.1,16c-.1,0-.2-.1-.3.1A18.4,18.4,0,0,0,7.5,18h0Zm48-3.8s0,0,0-.1h0a1.9,1.9,0,0,0,.2.6c.1.2,0,.3-.2.4l-1.9.7a1.2,1.2,0,0,1-1.1,0h-.2l.3.3c.2.2.3.5.6.6s.5-.2.8-.3h.3l.6.8c.1.2,0,.3-.1.4h-.3a.7.7,0,0,0-.5-.1l1.4,1.9a1.7,1.7,0,0,1,.5-1.2l1.3-2.1a.3.3,0,0,0,0-.4l-.6-.7A5.4,5.4,0,0,0,55.6,14.2ZM3.1,31.5l.4-.7a.3.3,0,0,1,.4-.2l2.1.3c.2,0,.2.1.3.2l.3.8L7,28.9c-.4.6-.9.4-1.5.3H5.5c-.1,0-.1-.1-.1-.2l.3-1.6h.2c.5.1,1.1.2,1.3.9h.1c.2-1,.4-1.9.7-2.8l-.6.6H7l-1.6-.5a.8.8,0,0,1-.7-1c0-.1-.1-.3.1-.4l.5-.6h.2l2.2.8a.3.3,0,0,1,.2.2,3.7,3.7,0,0,0,.1.8l.7-1.9a18.7,18.7,0,0,1,1-2.1c0-.1.2-.2,0-.3l-1.2-.8v.4a1.7,1.7,0,0,1,0,1.7c-.4.7-.3.7-1,.4s-.4-.2-.2-.6l.2-.2.7-.2-1.5-.8a2.5,2.5,0,0,0,.1.7.8.8,0,0,1-.2.7c-.1.1-.3-.1-.4-.1H6c-.1,0-.2-.1-.1-.3L6.3,21l.3-.3,1-.4-.9-.5c-.2-.1-.3-.1-.4.1a29,29,0,0,0-2.4,6.6l-.3,1.2.5-.6c.1-.1.8,0,.9.1a.2.2,0,0,1,0,.1l-.3,1.6c0,.2-.1.2-.2.2l-.8-.2c-.2,0-.3,0-.3.2v1a6.1,6.1,0,0,0-.1,1.4h0ZM47,10.9c0,.3,0,.3-.1.4a.3.3,0,0,1-.4-.2c-.1-.1,0-.3.1-.4a.7.7,0,0,0-.2-1.1l-.3-.3h.7a.9.9,0,0,0,.9-.5.8.8,0,0,0-.2-.9l-.7-.5L44,6.4h-.3l.5.4c.2.1.1.2.1.4l-.8,1.9a.4.4,0,0,1-.4.3h-.6l2.3,1-.3-.5c-.1-.3.1-.5.2-.7a.4.4,0,0,1,.4-.1.6.6,0,0,1,.5.9l-.2.6a.9.9,0,0,0,.1.8,1.9,1.9,0,0,0,1.7.7.6.6,0,0,0,.5-.5.6.6,0,0,0-.4-.6ZM12.8,16.6,15,14.5a2,2,0,0,0,.6-1.2,1.8,1.8,0,0,0-1-1.8,1.6,1.6,0,0,0-1.8.1,6.9,6.9,0,0,0-1.4,1.2l-1.4,1.5L11,14h.3l1.6,1.5a.3.3,0,0,1,.1.4Zm47.2,12A1.8,1.8,0,0,0,60,28c-.1-.4-.3-.6-.6-.6s-.4.3-.5.7A5.3,5.3,0,0,0,59,30a2.9,2.9,0,0,0,.7,1.6l.5.3a.8.8,0,0,0,.9-.7,4.8,4.8,0,0,0,.1-1.4,3.7,3.7,0,0,1,.1-1.2c0-.1.1-.3.3-.3s.2.1.3.2a1.8,1.8,0,0,1,.2,1.1,3.7,3.7,0,0,1-.5,1.4h1.3l-.3-.4a.3.3,0,0,1-.1-.3,3.9,3.9,0,0,0,0-1.8,2.8,2.8,0,0,0-.6-1.3.7.7,0,0,0-.7-.3.8.8,0,0,0-.6.6,3.3,3.3,0,0,0-.2,1.2,4.8,4.8,0,0,1-.1,1.4c0,.1-.1.3-.2.3s-.2-.1-.3-.2a2.3,2.3,0,0,1-.2-1.4C59.7,28.6,59.8,28.4,60.1,28.7ZM38.3,7a1.8,1.8,0,0,0,.4,1.1,2.8,2.8,0,0,0,3,.7,1.8,1.8,0,0,0,1.1-1.7,1.7,1.7,0,0,0-1-1.5,3.2,3.2,0,0,0-1.6-.4A1.7,1.7,0,0,0,38.3,7ZM23.5,5.9l.6.2.2.2.5,1.6a.5.5,0,0,1-.2.5A.9.9,0,0,1,23.2,8l-.6-1.7c0-.1,0-.2-.2-.2L20.5,7h.8c.1,0,.2.1.3.2l.7,1.7a1,1,0,0,0,.8.6,3.2,3.2,0,0,0,2.3-.6,1,1,0,0,0,.4-1.2c-.1-.4-.2-.9-.4-1.3a.7.7,0,0,1,.3-1s.1,0,0-.1A11.2,11.2,0,0,0,23.5,5.9Zm3.6,2.7L30,8.1l-.8-.3c-.4,0-.4-.3-.5-.6s0-.2.1-.2h.3a3.5,3.5,0,0,0,1.5-.6.9.9,0,0,0-.2-1.7l-.8-.2a15.3,15.3,0,0,0-3.1.5c-.1,0-.2,0-.3.1h.7a.3.3,0,0,1,.3.3c.1.6.2,1.1.3,1.7s.1.9-.3,1.1Zm-8.9.8-.4-1.1c-.3.4-.3.3-.8.5a2.8,2.8,0,0,0-1.7,1.3.8.8,0,0,0,.8,1.3,2.5,2.5,0,0,0,1.1-.3,2.5,2.5,0,0,1,1-.3c.3,0,.4.2.3.4a1.3,1.3,0,0,1-.8.6c-.3.1-.4,0-.4-.3l-.5.3a.5.5,0,0,0-.2.6.6.6,0,0,0,.6.3l.8-.2a3.1,3.1,0,0,0,1.7-1.3.9.9,0,0,0-.9-1.4l-1.1.3-.9.2a.4.4,0,0,1-.4-.2.3.3,0,0,1,.1-.4,1.3,1.3,0,0,1,1-.5ZM60,21c0,.2,0,.5,0,.7a.4.4,0,0,1-.3.5l-1.8.8c-.2.1-.4.2-.6-.1l-.4-.3.5,1.3a24.7,24.7,0,0,1,1,3c0,.1,0,.2.2.1l1.3-.5-.3-.2a3.6,3.6,0,0,1-1-.6,3.7,3.7,0,0,1-.5-1.1h0c-.1-.2-.1-.2.1-.3l2-.8a.3.3,0,0,1,.4.1l.5.6A12.1,12.1,0,0,0,60,21ZM36.9,5.7l-.5.3a.7.7,0,0,1-.7.1c-.1,0-.1-.1-.1-.2V5.1c0-.1.1-.2.2-.1H37l.3.2.6.8L38,4.9c0-.2-.1-.2-.2-.2l-2.4-.2H33.6l.6.3a.3.3,0,0,1,.2.4c0,.6-.1,1.1-.1,1.7s-.1.8-.6,1h-.2l2.6.2-.2-.2a.7.7,0,0,1-.4-.9c.1-.4,0-.4.5-.4h.2l.4.6Zm14.8,9.6-.2-.7a.3.3,0,0,1,.1-.3l1.6-1.7h.1a.7.7,0,0,1,.4.5l-.2,1.1h.1l.5-.5c.2-.2.5-.4.5-.6s-.3-.4-.5-.5h-.1l-2.4-2c-.1-.1-.1-.1-.2,0l-.8,1,1.1-.2c.3-.1.4.1.5.3s-.1.2-.2.3l-.8,1a1.1,1.1,0,0,1-1.5.6h-.1Zm1.1,38.9a1.2,1.2,0,0,0-1.1-1.3,2.3,2.3,0,0,0-2.5,2,1.3,1.3,0,0,0,.9,1.4A2.3,2.3,0,0,0,52.8,54.2ZM56.3,51a.9.9,0,0,0-.4-.8l-.8-.7c-.2-.2-.4-.5-.6-.4s-.3.4-.5.6-.1.2,0,.3l1.1,1c.3.3.3.5,0,.9s-.5.4-.8.1l-.8-.7c-.5-.5-.5-.5-1,0h-.1c-.1.1-.1.1,0,.2l1.3,1.2a.9.9,0,0,0,1.2.1,3.4,3.4,0,0,0,1.3-1.4A1.1,1.1,0,0,0,56.3,51ZM26.1,60.3c.6-.1.8-.2.9-.6a.9.9,0,0,0-.6-1.1L25,58.1c-.1,0-.2,0-.2.1L24,60.7c-.1.2,0,.2.2.2s.5.3.7.1h0l.2-.8.4,1c0,.1,0,.2.2.2l1,.2Zm13,.2c.5-.4.6-.6.5-1a.9.9,0,0,0-1.2-.6l-1.3.2c-.2,0-.2.1-.2.2l.3,2c0,.2,0,.5.2.6s.4-.1.7-.1.2-.1.2-.3a3.5,3.5,0,0,1-.1-.8l.8.7h.2l1.1-.3ZM19.4,59l.7.3c.2.1.4.1.5-.1a.3.3,0,0,1,.4-.1l.9.4c.1,0,.2.1.2.2s.1.4.4.5h.4c.2.1.3.1.2-.2a17.8,17.8,0,0,1-.1-2.4c0-.4-.1-.5-.4-.6a.8.8,0,0,0-1.2.2A16.9,16.9,0,0,1,19.4,59Zm-8.9-11a1.3,1.3,0,0,0-.2-.7L9.5,46c-.1-.2-.2-.1-.3-.1l-2,1.2c-.3.2-.3.2-.1.5s.4.6.9.2.3-.1.4.1a2.3,2.3,0,0,0,.6.8.8.8,0,0,0,1,.1A.9.9,0,0,0,10.6,48.1Zm2.5,2.7H13l-1.3-1.5h-.2l-2,1.6c-.1.1-.1.1,0,.2l1.4,1.6c.1.1.2.1.2,0l.2-.2c.1-.1.1-.2,0-.3l-.6-.7c-.1-.1-.1-.2,0-.3s.2-.2.3,0l.6.7c.1.1.2.1.2,0l.2-.2c.1-.1.1-.2,0-.3l-.6-.6c-.2-.2,0-.2.1-.3s.2-.1.3,0l.5.6c.1.1.1.2.2.2Zm-5.5-13a.6.6,0,0,0-.1-.3.4.4,0,0,0-.8.1.6.6,0,0,1-.7.4H5a.5.5,0,0,1-.6-.3.4.4,0,0,0-.7-.2.5.5,0,0,0,0,.8c.1.1.1.1,0,.2a.4.4,0,0,0-.1.6.5.5,0,0,0,.5.4.5.5,0,0,0,.5-.3.3.3,0,0,1,.3-.2H6a.7.7,0,0,1,.8.3c.1.2.4.2.6.1s.4-.3.3-.5S7.2,38.1,7.6,37.8Zm54.9-.1a.5.5,0,0,0-.3-.4c-.3-.1-.5,0-.6.3a.4.4,0,0,1-.5.3H60c-.3,0-.6,0-.8-.4a.4.4,0,0,0-.6-.2c-.2.1-.4.4-.3.5a.7.7,0,0,1,0,.8c-.1.2.1.5.4.6a.5.5,0,0,0,.6-.3.3.3,0,0,1,.4-.2H61a.5.5,0,0,1,.6.3.4.4,0,0,0,.5.2.5.5,0,0,0,.3-.9c-.1-.2-.1-.3,0-.4A.4.4,0,0,0,62.5,37.7Zm-3.7,9.9a.8.8,0,0,0-.5-.8.8.8,0,0,0-.9.2l-.3.3-.4.3h-.3c-.1-.1-.1-.2,0-.3a.8.8,0,0,1,.4-.5c.3-.1.2-.3.1-.5h-.3a2.3,2.3,0,0,0-1,1.6.8.8,0,0,0,.4.8.7.7,0,0,0,.8-.1l.6-.6c.1-.1.2-.2.4-.1s.1.3,0,.4a1.3,1.3,0,0,1-.7.6c-.1,0-.2,0-.2.2a2,2,0,0,0,.2.6h.1A2.5,2.5,0,0,0,58.8,47.6ZM43,59.3V59c0-.2-.2-.3-.4-.2l-.6.2c-.2.1-.2-.1-.3-.2s-.1-.2.1-.3l.8-.2c.2,0,.2-.1.1-.3v-.2c0-.1-.1-.2-.2-.1l-1.6.5c-.1,0-.2.1-.2.2l.7,2.5c0,.1.1.2.2.1l1.9-.6c.3-.1,0-.3,0-.4s-.1-.3-.3-.2l-.8.3c-.2.1-.2,0-.2-.1s-.1-.2.1-.3l.8-.2C42.9,59.4,43,59.4,43,59.3ZM30.1,61.6c.1-.2-.1-.3-.3-.3h-.8c-.2,0-.2-.1-.2-.3s.1-.2.3-.2h.5c.4.1.4,0,.5-.4s0-.2-.2-.2h-.7c-.2,0-.2-.1-.2-.3s.1-.2.2-.2H30c.3.1.3-.1.3-.3s.1-.4-.2-.4l-1.5-.2c-.2,0-.3,0-.3.2l-.4,2.3c0,.2,0,.3.2.3l1.6.2C30.1,62.1,30.1,62.1,30.1,61.6Zm3.4-.9h0c0,.4,0,.9,0,1.3s0,.2.2.2.6.1.7,0,0-.5,0-.7,0-.2.2-.2h.7a.9.9,0,0,0,.6-1.4,1,1,0,0,0-.9-.5H33.7c-.2,0-.1.1-.1.2S33.5,60.3,33.5,60.7ZM16.6,54.1a.8.8,0,0,0-.8.4.8.8,0,0,0,.2.9l.4.5c.1.1.2.2.1.4s-.3.1-.4,0a1,1,0,0,1-.5-.5c-.2-.4-.2-.4-.6-.3h-.1c-.1,0-.1.1-.1.2a2.1,2.1,0,0,0,1.9,1.4.8.8,0,0,0,.8-.5.7.7,0,0,0-.1-.8l-.5-.6c-.1-.1-.2-.2-.1-.3s.2-.1.3,0a1,1,0,0,1,.4.5c.1.1.1.2.2.1l.3-.2c.1,0,.1-.1.1-.2A1.9,1.9,0,0,0,16.6,54.1Zm29.7,3-.3-.6h-.2A2.1,2.1,0,0,0,44,57.6a1.4,1.4,0,0,0,.9,1.9,2.2,2.2,0,0,0,2.1-.7c.1-.1.1-.1,0-.2a3.9,3.9,0,0,0-.4-.6c-.4.6-.9.9-1.4.7a.8.8,0,0,1-.5-.9C45,57.3,45.5,57,46.3,57.1ZM14.6,53.2l.2.2c.4.3.3.3.7-.1s.1-.2,0-.4L14,51.6c-.2-.2-.2-.2-.4,0s-.3.3,0,.6h.1c.1.1.1.2,0,.3l-.8.9c-.2.2-.5.4-.5.6s.4.4.6.6.2.1.3,0l1.1-1.3Zm34.5,4.4H49l-1-1.6c-.4-.7-.4-.7-1.1-.2s-.1.1-.1.3L48.1,58c.1.1.1.2.3.1l.6-.4C49,57.7,49.1,57.7,49.1,57.6Z"/><path d="M38.8,59.8a.3.3,0,0,0-.4-.3c-.1,0-.4-.1-.4.2s-.1.5.2.6A.5.5,0,0,0,38.8,59.8Z"/><path d="M18.6,17.4a.3.3,0,0,1-.4.3A.7.7,0,0,1,18.6,17.4Z"/><path d="M15.6,20.9h-.1C15.4,20.9,15.5,20.9,15.6,20.9Z"/><path d="M11.9,30.8c.1,0,0,.1,0,.1S11.8,30.8,11.9,30.8Z"/><path d="M30.9,11.9h0Z"/><path d="M35.2,11.9h0Z"/><path d="M30.4,11.9h0Z"/><path d="M36.1,12h0Z"/><path d="M29.5,12h0Z"/><path d="M36.5,12.1h0Z"/><path d="M59.9,20.7h0s0,0,0-.1Z"/><path d="M55.6,14.2h0s0,0,0,.1Z"/><path d="M47.4,48.5h0Z"/><path d="M47.3,48.6h0Z"/><path d="M47.3,48.6h0Z"/><path d="M47.2,48.7h0Z"/><path d="M15.7,20.7h0Z"/><path d="M53.6,37.7h0Z"/><path d="M53.6,37.9h0Z"/><path d="M7.6,18h0Z"/><path d="M18,17.9h0Z"/><path d="M3.1,31.5h0Z"/><path d="M18.3,48.2h0Z"/><path d="M45.3,50.2h0Z"/><path d="M46.9,44.6l-.2.3h-.2a15.9,15.9,0,0,0-.7,1.7l-.3.7a2.3,2.3,0,0,1-1.4.9h-.8c-.4-.3-.8-.1-1.3,0h-.7a.5.5,0,0,1-.4-.6c.4-.5.5-.6,1.1-.4a.5.5,0,0,0,.6-.2,4.8,4.8,0,0,0,.9-1.8,1.7,1.7,0,0,0-.3-1.6l-.3-.3c-.2-.2-.3-.5-.6-.6l-1.3-.7a7.8,7.8,0,0,1-1.2-1.1,8.7,8.7,0,0,1-1.1-1.8,1.7,1.7,0,0,0-1.3-1.1,2.5,2.5,0,0,0-1.3.3l-2.5,1.2a13.7,13.7,0,0,0-1.7.7,1.7,1.7,0,0,0-.8.8,1.9,1.9,0,0,0,0,.4v2.3h0v1.2a3.7,3.7,0,0,1-1.3,2.8h-.1a2.3,2.3,0,0,1-2,0c-.3-.1-.1-.3-.2-.5s.4-.5.6-.6l.7-.3A1.4,1.4,0,0,0,30.1,45a3.9,3.9,0,0,0-.1-1v-.2a.1.1,0,0,0,0-.1v-.2h0a3.8,3.8,0,0,0-.8-1.5,10,10,0,0,0-2.6-2.1,8,8,0,0,1-2.3-2.1c-.1-.3-.4-.4-.3-.7h-.1a.1.1,0,0,0,0-.1h-.1a3.4,3.4,0,0,1-.2-1.2c-.1-.6-.1-1.3-.2-1.9v-.8a.3.3,0,0,0-.2-.3c-.2-.1-.2.1-.3.2s.4.1.4.5a2.1,2.1,0,0,1-.9.6H22a2.6,2.6,0,0,1-.3-.9c0-.1,0-.3.1-.3h.5c.1.1.1.2.2,0s.3-.2.1-.4a.9.9,0,0,1,0-1h.1a2.3,2.3,0,0,0-.7-1.2,4.3,4.3,0,0,0-1.7-1.2l-1.2-.6a3.5,3.5,0,0,1-1.2-1.2,5.4,5.4,0,0,1-.4-1,2.6,2.6,0,0,1-.1-1.2.7.7,0,0,1,.7-.6h1.9a.5.5,0,0,0,.4-.3,2.2,2.2,0,0,0,.3-.6,2.7,2.7,0,0,1,.5-.7,1.4,1.4,0,0,0,.3-1.3,6.6,6.6,0,0,0-.4-1.7c0-.1-.3-.1-.3-.4s.1-.4.3-.3.3.2.3.4-.1.2,0,.2a1.6,1.6,0,0,0,.5,1c.2.2.4.2.6-.1a2.5,2.5,0,0,0,.2-.9,2,2,0,0,0,0-.7h-.1c-.1-.1-.2-.2-.1-.4a.3.3,0,0,1,.5-.2.5.5,0,0,1,0,.5c0,.1-.1.1-.1.2a3,3,0,0,0,.4,1.6c.1.2.3.2.5,0a1.3,1.3,0,0,0,.3-.8h0v-.3a.1.1,0,0,0,0-.1c0-.2.1-.4,0-.5a.5.5,0,0,1-.1-.5c.4-.2.5-.2.6.2s-.2.3-.2.5a4.9,4.9,0,0,0,.2,1.4.4.4,0,0,0,.8.1,6.1,6.1,0,0,0,.4-1.3.1.1,0,0,0-.1-.2c-.1-.1-.1-.3-.1-.4a.4.4,0,0,1,.4-.2.4.4,0,0,1,0,.6v.2a4.5,4.5,0,0,0,.2,1.6c.1.4.4.5.7.1a1.3,1.3,0,0,0,.4-1.3.3.3,0,0,1,.2-.4c.1,0,.2,0,.3.1s.1.4,0,.5-.4.6-.5,1a1.8,1.8,0,0,0-.2.7V21a1.1,1.1,0,0,0,0,.5c0,.1,0,.1,0,.2h.1l.5-.6a2.2,2.2,0,0,1,2-.9c.1,0,.2-.1.2.1a.3.3,0,0,1-.1.4l-.3.4a2.7,2.7,0,0,0-.8,2.4.1.1,0,0,0,0,.1v.3l.2,1.8a3.8,3.8,0,0,1,0,.6l-.2.9h.1c.7,0,1,.2,1.1.6a.9.9,0,0,1-.1.7c0,.1-.1.2,0,.3l.4.9a3.1,3.1,0,0,0,1.8,1.6l1.7.4h4.2a17.1,17.1,0,0,1,3-.1,17.7,17.7,0,0,1,3.3.6l1.1.3a1.7,1.7,0,0,0,1.9-.5,3,3,0,0,0,.6-1.4v-.4h.2v.2c0,.4,0,.9,0,1.3a1.8,1.8,0,0,1-.6,1.1,6.1,6.1,0,0,1-1.4.9c-.1.1-.1.1,0,.2s.4,1,.5,1.6v.3a0,0,0,0,0,0,.1v1a0,0,0,0,0,0,.1,4.6,4.6,0,0,1-.3.8,12,12,0,0,0-1,1.8,1.1,1.1,0,0,0-.1.4,1.8,1.8,0,0,0,0,.9h0a3.4,3.4,0,0,0,.6,1.3l.6.9a1.1,1.1,0,0,1,.1,1.2ZM28.6,28.1c-.1.2.2.3.1.5l-.2-.2a.7.7,0,0,0-1,0,.8.8,0,0,0-.2,1,.8.8,0,0,0,.9.4c.5-.2.6-.6.4-1.2s.1,0,.2,0a.8.8,0,0,0,1,0,.8.8,0,0,0,.2-.9.8.8,0,0,0-.8-.5.8.8,0,0,0-.7.7A.2.2,0,0,0,28.6,28.1Zm16,15.7a6.6,6.6,0,0,1-.4,1.9L43.6,47c-.2.4-.1.4.2.5a.7.7,0,0,0,1-.4,7.6,7.6,0,0,0,.7-1.8A1.1,1.1,0,0,0,44.6,43.9Zm-18-14.7a.8.8,0,0,0-.8.8.8.8,0,1,0,1.6,0A.8.8,0,0,0,26.6,29.2Zm-2.4,2a.8.8,0,0,0-.8-.8.8.8,0,1,0,0,1.5A.8.8,0,0,0,24.2,31.2Zm.8.2a.8.8,0,0,0,.8-.8.8.8,0,0,0-.8-.8.8.8,0,0,0-.8.8A.8.8,0,0,0,25,31.4Z"/><path d="M29.1,27.2h0Z"/><path d="M27.5,21.7h-.1c-.1,0,0-.1,0-.2Z"/><path d="M27.3,21v-.2C27.4,20.9,27.4,20.9,27.3,21Z"/><path d="M43.5,48.5h0Z"/><path d="M43.3,48.5h0Z"/><path d="M29.8,48h0Z"/><path d="M23.1,32.6c0-.3-.1-.4-.4-.5s.1-.2.3-.2a.3.3,0,0,1,.2.3v.4Z"/><path d="M23.8,36.8h0Z"/><path d="M23.7,36.4a.1.1,0,0,1,0,.1Z"/><path d="M23.7,36.6h0Z"/><path d="M23.6,36.2h0Z"/><path d="M36.3,31.9h0Z"/><path d="M36.8,31.9h0Z"/><path d="M29.1,23.5a.1.1,0,0,1,0-.1C29.1,23.4,29.1,23.5,29.1,23.5Z"/><path d="M29.9,43.4h0Z"/><path d="M30,43.6a.1.1,0,0,1,0,.1A.1.1,0,0,1,30,43.6Z"/><path d="M47.1,36.9a0,0,0,0,1,0-.1h0Z"/><path d="M47.1,35.8a0,0,0,0,1,0-.1h0Z"/><path d="M45.7,40.9a1.8,1.8,0,0,1,0-.9Z"/><path d="M22.8,18.1h0Z"/><path d="M45.9,8.8l-.8-.2c-.1,0-.1-.1-.1-.2l.3-.7c.1-.1.1-.2.3-.1l.6.3c.2.1.4.3.3.6A.6.6,0,0,1,45.9,8.8Z"/><path d="M13.3,12.2a1.1,1.1,0,0,1,.7.3c.9.8.9,1.5-.1,2.2h-.2l-1.5-1.6s-.1-.1,0-.2A2.4,2.4,0,0,1,13.3,12.2Z"/><path d="M39.7,7.3A2.1,2.1,0,0,1,40,6.2a.8.8,0,0,1,.9-.3.8.8,0,0,1,.6.8A2.2,2.2,0,0,1,41.1,8a.8.8,0,0,1-.9.2C39.8,8.1,39.7,7.8,39.7,7.3Z"/><path d="M46.7,45.1h0Z"/><path d="M46.7,45.1h0Z"/><path d="M46.6,45.3h0Z"/><path d="M29.2,5.1h.3a.5.5,0,0,1,.4.4.5.5,0,0,1-.3.5l-.9.2c-.1,0-.1,0-.2-.1V5.7c-.1-.5-.1-.5.5-.6Z"/><path d="M55.9,15.9l-.6,1c-.1.1-.1.1-.2,0l-.4-.5c0-.1-.1-.1,0-.2l1.1-.4Z"/><path d="M9.7,18.4l-.2-.3L9,17.3l1.3.4Z"/><path d="M50.9,55.5a.8.8,0,0,1-.8-.8,1.1,1.1,0,0,1,1-1,.8.8,0,0,1,.8.8A1.1,1.1,0,0,1,50.9,55.5Z"/><path d="M25.7,59.7c-.1-.1-.4.1-.4-.2s0-.5.3-.6a.5.5,0,0,1,.5.4C26.1,59.6,26,59.7,25.7,59.7Z"/><path d="M38.8,59.8a.5.5,0,0,1-.5.4c-.3,0-.2-.4-.2-.6s.2-.2.4-.2A.3.3,0,0,1,38.8,59.8Z"/><path d="M35.2,60.2a.5.5,0,0,1-.5.4c-.3,0-.2-.4-.2-.6s.2-.2.4-.2A.3.3,0,0,1,35.2,60.2Z"/><path d="M22.1,57.7V59l-.7-.3c-.1,0-.1-.1,0-.2Z"/><path d="M9.7,47.7a.3.3,0,0,1-.3.3c-.1,0-.6-.4-.6-.5l.5-.4C9.5,47.1,9.7,47.5,9.7,47.7Z"/><path d="M23.5,19.8c.2-.4.3-.1.5,0S23.6,20.1,23.5,19.8Z"/><path d="M31.3,43.9a.5.5,0,0,1,0,.5Z"/><path d="M28.6,28a.1.1,0,0,1,0,.2A.2.2,0,0,1,28.6,28Z"/><path d="M24.3,18.7c-.1-.1-.1-.1,0-.1A.1.1,0,0,1,24.3,18.7Z"/><path d="M24.3,19.1c-.1-.1,0-.1,0-.1Z"/><path d="M31.1,41.2a.1.1,0,0,1,0,.2A.2.2,0,0,1,31.1,41.2Z"/><path d="M31.1,41.8c.1.1.1.1,0,.2Z"/><path d="M28.4,28.7c.2,0,.2,0,.2.4s-.1-.3-.2-.4Z"/><path d="M28.4,28.6h0Z"/><polygon points="28.4 28.6 28.4 28.6 28.4 28.6 28.4 28.6"/><path d="M25.5,30.7a1.3,1.3,0,0,0-.2-.5C25.6,30.3,25.6,30.3,25.5,30.7Z"/><path d="M29.8,27.7c.3.1.2.3.2.5a1.7,1.7,0,0,0-.2-.5Z"/><polygon points="29.7 27.6 29.7 27.6 29.7 27.6 29.7 27.6"/><path d="M29.7,27.6h0Z"/></g></svg>