<svg xmlns="http://www.w3.org/2000/svg" viewBox="0 0 478 120"><defs><style>.a{fill:#bc472b;}.b{fill:#f26424;}.c{fill:#ff8c21;}.d{fill:#18212b;}</style></defs><title>website-logo</title><polygon class="a" points="82.962 15 31 105 82.962 83.8 134.923 105 82.962 15"/><polygon class="b" points="82.962 15 31 105 82.962 70.63 134.923 105 82.962 15"/><polygon class="c" points="82.962 15 31 105 82.962 49.38 134.923 105 82.962 15"/><path class="d" d="M157.31767,48.37989a9.94207,9.94207,0,0,1,8.58261-4.146A12.3901,12.3901,0,0,1,175.375,48.4585a15.32621,15.32621,0,0,1,3.88627,10.79064,15.22338,15.22338,0,0,1-3.88627,10.7633,12.33969,12.33969,0,0,1-9.3961,4.20073,9.93593,9.93593,0,0,1-8.66123-4.62114V87.81h-8.9791V44.54831h8.9791Zm10.86584,16.19793a7.03378,7.03378,0,0,0,1.94143-5.32867,7.12991,7.12991,0,0,0-1.94143-5.356,6.2398,6.2398,0,0,0-8.92441-.02393,7.03378,7.03378,0,0,0-1.94143,5.32867,7.12175,7.12175,0,0,0,1.94143,5.3526,6.24377,6.24377,0,0,0,8.92441.02734Z"/><path class="d" d="M193.96211,44.54831v5.462q3.148-5.77814,8.398-5.77643v9.13633h-2.20461a6.5144,6.5144,0,0,0-4.64507,1.46974q-1.54836,1.46632-1.54836,5.1441v13.86H184.983V44.54831Z"/><path class="d" d="M207.81614,73.844V44.54831h8.9791V73.844Z"/><path class="d" d="M233.07435,44.54831V48.855q2.77884-4.61943,8.86972-4.62114a11.3925,11.3925,0,0,1,5.80377,1.46974,10.11715,10.11715,0,0,1,3.96147,4.20073,12.53528,12.53528,0,0,1,4.22807-4.12211,12.19964,12.19964,0,0,1,14.30435,1.76027q3.15311,3.30692,3.1514,9.1876V73.844h-8.92441V57.93663a6.05908,6.05908,0,0,0-1.49709-4.3853,6.25668,6.25668,0,0,0-8.24081,0,6.05908,6.05908,0,0,0-1.49709,4.3853V73.844h-8.92441V57.93663a6.05908,6.05908,0,0,0-1.49709-4.3853,6.26123,6.26123,0,0,0-8.24423,0,6.05773,6.05773,0,0,0-1.49367,4.3853V73.844h-8.9791V44.54831Z"/><path class="d" d="M282.74138,70.01245a15.22338,15.22338,0,0,1-3.88627-10.7633,15.32621,15.32621,0,0,1,3.88627-10.79064,12.3901,12.3901,0,0,1,9.47471-4.22465,9.95236,9.95236,0,0,1,8.586,4.146V44.54831h8.97568V73.844h-8.97568V69.592a10.15355,10.15355,0,0,1-8.71591,4.62114A12.2855,12.2855,0,0,1,282.74138,70.01245Zm16.1159-5.462a7.12339,7.12339,0,0,0,1.94485-5.3526,7.0354,7.0354,0,0,0-1.94485-5.32867,6.2398,6.2398,0,0,0-8.92441.02393,7.12991,7.12991,0,0,0-1.94143,5.356,7.03378,7.03378,0,0,0,1.94143,5.32867,6.24377,6.24377,0,0,0,8.92441-.02734Z"/><path class="d" d="M316.60356,53.15826a7.64661,7.64661,0,0,1,3.0181-6.11481,11.87347,11.87347,0,0,1,7.82381-2.49514,10.90376,10.90376,0,0,1,7.53328,2.44046,9.35148,9.35148,0,0,1,2.99075,6.69587h-4.9356a5.50286,5.50286,0,0,0-1.627-3.88627,5.83989,5.83989,0,0,0-4.22465-1.46974,6.46958,6.46958,0,0,0-4.252,1.28517,4.10885,4.10885,0,0,0-1.54836,3.30863,3.48728,3.48728,0,0,0,1.75685,3.12406,12.58685,12.58685,0,0,0,4.252,1.59963q2.49685.50245,4.98687,1.15529a9.058,9.058,0,0,1,4.25542,2.4678,7.089,7.089,0,0,1,1.75685,5.14752,6.82211,6.82211,0,0,1-3.0181,5.61578,12.64965,12.64965,0,0,1-7.84774,2.28323,11.74459,11.74459,0,0,1-7.7452-2.41311,8.95936,8.95936,0,0,1-3.17533-6.66853h4.9356a5.2562,5.2562,0,0,0,1.70558,3.85893,6.334,6.334,0,0,0,4.40923,1.4424,7.1578,7.1578,0,0,0,4.40923-1.20656,3.68878,3.68878,0,0,0,1.603-3.07279,3.73691,3.73691,0,0,0-1.26124-2.96341,7.00242,7.00242,0,0,0-3.148-1.52443q-1.89187-.42041-4.12211-.99806c-1.49025-.38282-2.86087-.793-4.12211-1.2339a6.67878,6.67878,0,0,1-3.1514-2.28323A6.49644,6.49644,0,0,1,316.60356,53.15826Z"/><path class="d" d="M357.34277,74.31571a13.25455,13.25455,0,0,1-10.0797-4.09477q-3.88627-4.09648-3.88627-10.81457,0-6.72151,3.93754-10.78723a14.96782,14.96782,0,0,1,20.2927-.21192,13.43889,13.43889,0,0,1,3.80424,9.84386,17.98491,17.98491,0,0,1-.2085,2.83694H348.26113a9.89163,9.89163,0,0,0,2.70364,6.79841,8.63613,8.63613,0,0,0,6.378,2.49173,8.91579,8.91579,0,0,0,4.95953-1.31251,7.79612,7.79612,0,0,0,2.96683-3.46586h5.1441a13.20868,13.20868,0,0,1-4.69634,6.24811A13.68392,13.68392,0,0,1,357.34277,74.31571ZM363.79938,50.981a9.41,9.41,0,0,0-12.70473-.05469,9.76877,9.76877,0,0,0-2.78226,6.69587h18.112A8.98463,8.98463,0,0,0,363.79938,50.981Z"/><path class="d" d="M377.34494,73.844V34.995h4.77837V73.844Z"/><path class="d" d="M389.99839,73.844V34.995h4.77837V73.844Z"/><path class="d" d="M414.72424,74.31571a13.25455,13.25455,0,0,1-10.0797-4.09477q-3.88627-4.09648-3.88627-10.81457,0-6.72151,3.93754-10.78723a14.96782,14.96782,0,0,1,20.2927-.21192,13.43889,13.43889,0,0,1,3.80424,9.84386,17.98491,17.98491,0,0,1-.2085,2.83694H405.6426a9.89163,9.89163,0,0,0,2.70364,6.79841,8.63613,8.63613,0,0,0,6.378,2.49173,8.91579,8.91579,0,0,0,4.95953-1.31251,7.79612,7.79612,0,0,0,2.96683-3.46586h5.1441a13.20868,13.20868,0,0,1-4.69634,6.24811A13.68392,13.68392,0,0,1,414.72424,74.31571ZM421.18086,50.981a9.41,9.41,0,0,0-12.70473-.05469,9.76877,9.76877,0,0,0-2.78226,6.69587h18.112A8.98463,8.98463,0,0,0,421.18086,50.981Z"/><path class="d" d="M439.50478,45.02v4.88433q2.56863-5.35772,8.76718-5.356v4.98687h-1.26124a7.57409,7.57409,0,0,0-5.59186,1.9175q-1.9175,1.9175-1.91408,6.64118V73.844h-4.77837V45.02Z"/><circle class="d" cx="212.80333" cy="36.6901" r="4.5001"/></svg>